<svg xmlns="http://www.w3.org/2000/svg" version="1.1" xmlns:xlink="http://www.w3.org/1999/xlink" xmlns:svgjs="http://svgjs.dev/svgjs" viewBox="0 0 9.675213811110071 9.675213811110071"><g transform="matrix(0.8571428571428572,0,0,0.8571428571428572,3.349316655047656,3.3488358568385963)"><g><path d=" M -0.8852418931801218 -0.7704853574348502 Q -0.8805445294990536 -0.7667524263548835 -0.8817888398590426 -0.7651866384611941 Q -0.9010756504388708 -0.7409169261090086 -0.8989312165851008 -0.6817337240712107 Q -0.8967867827313308 -0.6225505220334129 -0.8731543651141447 -0.5590642334541698 L -0.8016349570825919 -0.36938826166328576 L -0.6270496069362254 -0.23064765652452124 Q -0.6027798945840399 -0.211360845944693 -0.5887086034282418 -0.20656514315899405 Q -0.5746373122724439 -0.20176944037329503 -0.5617015924283006 -0.2100106267025708 Q -0.5487658725841575 -0.21825181303184654 -0.528856906824335 -0.2433044193308767 Q -0.5269904412843515 -0.24565310117141081 -0.5222930776032833 -0.24192017009144406 Q -0.5175957139222152 -0.23818723901147731 -0.5194621794621985 -0.2358385571709432 Q -0.5399933004020157 -0.21000305692506838 -0.5525971427687552 -0.19575022711501366 L -0.6000416752151844 -0.13765533628165613 L -0.6452982645879297 -0.07909902903515437 Q -0.6569584742409742 -0.06281899491826604 -0.6781117503607857 -0.03620060072554648 Q -0.6793560607207747 -0.0346348128318571 -0.6840534244018429 -0.03836774391182385 Q -0.688750788082911 -0.042100674991790626 -0.6875064777229221 -0.04366646288548001 Q -0.6675975119630994 -0.06871906918451018 -0.662179653997406 -0.0835732542871529 Q -0.6567617960317125 -0.09842743938979556 -0.664691904770991 -0.11175460620736105 Q -0.6726220135102696 -0.1250817730249265 -0.6961088319156103 -0.14374642842476032 L -0.8542534091782383 -0.26942177478364115 L -1.1228049913911748 -0.2963484844030584 Q -1.1912325819679621 -0.3034664088094834 -1.2240904976818319 -0.2982839986616637 Q -1.2569484133957018 -0.2931015885138441 -1.2675250514556076 -0.27979239141748435 Q -1.269391516995591 -0.27744370957695025 -1.274088880676659 -0.281176640656917 Q -1.2787862443577274 -0.28490957173688375 -1.276919778817744 -0.28725825357741785 L -1.256850074291071 -0.3109058107496088 Q -1.2415968724375035 -0.3268851672202032 -1.2359974758175534 -0.3339312127418054 Q -1.2142220445177472 -0.3613325008813697 -1.1747255905318024 -0.4142478117331083 L -1.1344462425990125 -0.4665409674048526 Q -1.1332019322390237 -0.46810675529854195 -1.1285045685579556 -0.4643738242185752 Q -1.1238072048768875 -0.46064089313860845 -1.1250515152368763 -0.4590751052449191 Q -1.135628153296782 -0.4457659081485592 -1.135275475931972 -0.43335117421357894 Q -1.1349227985671617 -0.4209364402785988 -1.124745177258181 -0.41284842293867074 Q -1.1122188741086656 -0.40289394005875945 -1.08628503475816 -0.40016704135470704 L -0.8319446825804653 -0.3730379931936266 L -0.8976207556755917 -0.5427425995624686 Q -0.9160527934237526 -0.591877719227026 -0.9411053997227827 -0.6117866849868487 Q -0.9598948544470554 -0.6267184093067157 -0.9787022788925337 -0.6231433868273984 Q -0.997509703338012 -0.6195683643480812 -1.0143078931978624 -0.5984302277832745 Q -1.0161743587378458 -0.5960815459427404 -1.020871722418914 -0.5998144770227072 Q -1.0255690860999822 -0.6035474081026739 -1.0237026205599988 -0.605896089943208 L -0.9899455020734478 -0.6467673139459822 Q -0.9597605759000132 -0.6815361251408492 -0.9373629894202127 -0.7097203072272582 Q -0.9267863513603068 -0.7230295043236179 -0.9134204149341292 -0.7430632694078795 L -0.8911835672211789 -0.7726525006211276 Q -0.8899392568611899 -0.774218288514817 -0.8852418931801218 -0.7704853574348502 M -0.27332602936714073 -0.5312681890807174 Q -0.35722182546305986 -0.5207803200201333 -0.43426857779119443 -0.5550483511232925 Q -0.511315330119329 -0.5893163822264518 -0.565601643620302 -0.6585767328353974 Q -0.6291413060134863 -0.7396428250254133 -0.6335561447709448 -0.8295692349323236 Q -0.6379709835284033 -0.9194956448392338 -0.5966513815387093 -0.9988930030535552 Q -0.5553317795490154 -1.0782903612678767 -0.4884325772562838 -1.1307260049904073 Q -0.41366288057617207 -1.1893305479744125 -0.3295437192734745 -1.198722922633185 Q -0.2454245579707769 -1.2081152972919573 -0.17009018997060144 -1.1744109504207576 Q -0.09475582197042609 -1.140706603549558 -0.04417084802633764 -1.0761685495730404 Q 0.011966135253077659 -1.0045470506478809 0.021071396580856716 -0.9151205768487153 Q 0.03017665790863583 -0.8256941030495496 -0.006037665159288108 -0.7414042886902095 Q -0.0422519882272121 -0.6571144743308693 -0.11623463546858587 -0.5991268212730118 Q -0.1894302332712216 -0.5417560581413017 -0.27332602936714073 -0.5312681890807174 M -0.04663470615053711 -0.7267369691411285 Q -0.031659928726486486 -0.7797676776136743 -0.0505393131422498 -0.8443805156884859 Q -0.06941869755801311 -0.9089933537632977 -0.12308812113283868 -0.9774666549335053 Q -0.17984199433840137 -1.049875203297403 -0.2466038982687539 -1.0896633696737814 Q -0.31336580219910637 -1.12945153605016 -0.38037190942426563 -1.1290253969526054 Q -0.44737801664942484 -1.128599257855051 -0.5032585267998242 -1.084800073098584 Q -0.5748800257249839 -1.0286630898191689 -0.5711884882820485 -0.944522596884391 Q -0.567496950839113 -0.8603821039496131 -0.4916194899229803 -0.7635750229848368 Q -0.4317811670866805 -0.6872312274272491 -0.3613711292936313 -0.6452201981851395 Q -0.2909610915005821 -0.60320916894303 -0.22390177858123503 -0.6011358742738874 Q -0.15684246566188798 -0.5990625796047447 -0.1056842521439168 -0.6391604248043271 Q -0.06160948357458773 -0.6737062606685826 -0.04663470615053711 -0.7267369691411285 M 0.40396133019253505 -0.98082669954991 Q 0.31202334720963915 -0.9867771016402513 0.24375098953660826 -1.0362152971753409 Q 0.17547863186357737 -1.0856534927104304 0.14010656000510027 -1.1673224374350852 Q 0.1019524150791025 -1.255414782306623 0.11736838517523054 -1.3443689720111855 Q 0.1327843552713586 -1.433323161715748 0.1956655096146827 -1.5057832226352024 Q 0.25854666395800685 -1.5782432835546567 0.35673292334607504 -1.6207692575867585 Q 0.3998614671894321 -1.6394488910401117 0.4468884321975446 -1.6516437490600215 Q 0.4939153972056571 -1.6638386070799316 0.5252958945013506 -1.6643527952507178 Q 0.5347468688619947 -1.6651768605602946 0.5388294158864304 -1.6620411294185558 Q 0.5429119629108662 -1.658905398276817 0.5482014206093819 -1.6492089227699323 L 0.6153746146515037 -1.5268252555500803 Q 0.6165669316804411 -1.5240723697728449 0.6123762277280277 -1.521167546132204 Q 0.6081855237756142 -1.518262722491563 0.6047605105522073 -1.521138358841919 Q 0.542040706075065 -1.577885395120028 0.4685166702269663 -1.5929009255005204 Q 0.3949926343788675 -1.6079164558810128 0.32249997557833116 -1.5765187741189939 Q 0.2289018591523222 -1.5359799951351212 0.2080268991431406 -1.4495653780578288 Q 0.187151939133959 -1.3631507609805364 0.23603693732039363 -1.2502824441138787 Q 0.27538339927532884 -1.1594372134651052 0.3373842946648821 -1.101833923881144 Q 0.39938519005443535 -1.0442306342971832 0.4717928778052994 -1.029276479203251 Q 0.5442005655561635 -1.0143223241093187 0.6130227099870523 -1.0441302498327545 Q 0.6506454822759382 -1.0604252492282327 0.6672563602221867 -1.0774275647721472 Q 0.6838672381684352 -1.0944298803160617 0.6827101098417627 -1.1222626138152278 Q 0.68155298151509 -1.1500953473143942 0.6612835920231538 -1.1968944055273987 Q 0.6406167635215716 -1.244611092332815 0.6269634922693614 -1.261037844419383 Q 0.6133102210171513 -1.2774645965059512 0.5926343903975995 -1.276137935964741 Q 0.5719585597780477 -1.2748112754235306 0.5279123873422787 -1.2557342029605316 Q 0.5224066157878076 -1.2533495689026568 0.5192271037106411 -1.2606905976419518 Q 0.5180347866817037 -1.2634434834191872 0.5184176320462069 -1.2663337134146855 Q 0.5188004774107102 -1.269223943410184 0.5206357345955339 -1.2700188214294754 Q 0.6006213599987704 -1.29921299428731 0.6483380468041868 -1.3198798227888924 Q 0.6951371050171913 -1.3401492122808285 0.7444143605709057 -1.3647612435885836 Q 0.7462496177557294 -1.3655561216078753 0.7486196581684618 -1.3638582086413145 Q 0.750989698581194 -1.3621602956747534 0.7517845766004857 -1.3603250384899297 Q 0.7545666496680064 -1.3539016383430469 0.749978506705947 -1.3519144432948176 Q 0.7330637530328878 -1.3456781697136049 0.7296211454583486 -1.3360138822029954 Q 0.726178537883809 -1.326349594692386 0.7332856584160161 -1.3049080733438276 Q 0.7403927789482231 -1.2834665519952693 0.7634442415076801 -1.2302440936353818 Q 0.7813289969417416 -1.1889508069768484 0.7920920381984535 -1.1729069002547836 Q 0.8028550794551653 -1.1568629935327186 0.8048422745033943 -1.1522748505706595 Q 0.8072269085612692 -1.1467690790161884 0.8057277150995312 -1.1439402243072503 Q 0.8042285216377932 -1.141111369598312 0.7985999995102019 -1.1364940393459675 Q 0.6913542033591555 -1.0595308065141262 0.5968384583407348 -1.0185945885206078 Q 0.495899313175431 -0.9748762974595686 0.40396133019253505 -0.98082669954991 M 1.3035926589128135 -1.8634846413347508 Q 1.3521703924435422 -1.8641582918505966 1.3808030996318734 -1.8568666473812545 Q 1.3901792734076084 -1.8554218756597636 1.393399993286689 -1.851406036586731 Q 1.39662071316577 -1.8473901975136986 1.400440947526479 -1.8368827806365942 L 1.435630876311473 -1.7018765996221419 Q 1.4361350621725992 -1.6989192703172722 1.4313742419515254 -1.697093184113772 Q 1.4266134217304514 -1.6952670979102717 1.42495539748066 -1.6990421416963892 Q 1.3781621043491472 -1.7712043736318575 1.314746183547149 -1.8040132289735897 Q 1.2513302627451508 -1.836822084315322 1.1773970301234113 -1.824217437787166 Q 1.0798051630627152 -1.8075793043700004 1.0388417581958012 -1.7265422791179015 Q 0.9978783533288871 -1.6455052538658028 1.0185499736350627 -1.52425475236615 Q 1.0340116733762672 -1.4335633203501494 1.0758647866893494 -1.3636021389278614 Q 1.1177179000024315 -1.2936409575055734 1.177935696212645 -1.2587652206734259 Q 1.2381534924228583 -1.2238894838412782 1.305186289999902 -1.235317696693473 Q 1.3682759818371197 -1.2460736617308326 1.4109150587698027 -1.2964562888787765 Q 1.4535541357024857 -1.3468389160267207 1.4783638031280861 -1.4393239440162882 Q 1.4786773317482074 -1.4434351117098232 1.4842671640941771 -1.4433736760202647 Q 1.489856996440147 -1.4433122403307062 1.490361182301273 -1.4403549110258367 L 1.4984309614813145 -1.3037683865661178 Q 1.4984761520559062 -1.291602945439222 1.4965999278064956 -1.2877325730326024 Q 1.494723703557085 -1.2838622006259826 1.4865239634573113 -1.2784065373027778 Q 1.4043359052185689 -1.230918401069134 1.3116729203326554 -1.215120577420512 Q 1.191408195267959 -1.1946170190680452 1.1024235228466497 -1.2286460959593195 Q 1.0134388504253402 -1.262675172850594 0.9629658421282126 -1.3296451320370686 Q 0.9124928338310847 -1.3966150912235433 0.8988798155806764 -1.476462982455022 Q 0.8829139299783456 -1.570111743775892 0.9214128937578684 -1.650728614143719 Q 0.9599118575373912 -1.7313454845115457 1.0374732645778244 -1.7851458389519044 Q 1.1150346716182578 -1.838946193392263 1.2116407622439973 -1.8554162648557202 Q 1.2550149253820846 -1.862810990818905 1.3035926589128135 -1.8634846413347508 M 2.323507760417052 -1.2255761068071447 Q 2.323037176445072 -1.219594589380495 2.3200464177317475 -1.219829881366485 Q 2.285154232742957 -1.222574954536368 2.264297352411679 -1.225218918009406 L 2.187612976098336 -1.232254998554257 L 2.097811784036592 -1.2383168385628478 Q 2.079788801094646 -1.2387316709076794 2.0488842943902887 -1.2411630214295757 Q 2.0458935356769636 -1.2413983134155657 2.0463641196489437 -1.2473798308422155 Q 2.046834703620924 -1.2533613482688655 2.0498254623342484 -1.2531260562828754 Q 2.086711486465256 -1.250224121788999 2.1040512724840803 -1.2538753983905975 Q 2.1213910585029048 -1.2575266749921958 2.1284706051975077 -1.271012965015732 Q 2.1355501518921107 -1.2844992550392684 2.137981502414007 -1.3154037617436258 L 2.1560205546732383 -1.5446952630985358 L 1.834015533205256 -1.5700283669234563 L 1.8159764809460248 -1.3407368655685463 Q 1.8136235610861249 -1.310829278435297 1.8184678339138234 -1.2959033606822468 Q 1.8233121067415217 -1.2809774429291965 1.8398675861403795 -1.2746595238197118 Q 1.8564230655392373 -1.268341604710227 1.8933090896702447 -1.2654396702163506 Q 1.8953029288124612 -1.2652828088923573 1.8948323448404814 -1.2593012914657076 Q 1.8943617608685013 -1.2533197740390576 1.8923679217262848 -1.253476635363051 Q 1.857475736737494 -1.2562217085329341 1.8366188564062162 -1.258865672005972 L 1.7499652843817906 -1.2666860591707896 L 1.6751178858866709 -1.2715714392494306 Q 1.6551010638025083 -1.2721431329182555 1.6202088788137174 -1.2748882060881386 Q 1.618215039671501 -1.2750450674121319 1.6186856236434808 -1.2810265848387816 Q 1.6191562076154609 -1.2870081022654316 1.6211500467576774 -1.2868512409414383 Q 1.656042231746468 -1.2841061677715553 1.6723850981941843 -1.2878358750351502 Q 1.6887279646419004 -1.2915655822987453 1.6958467266675017 -1.3055503321078357 Q 1.7029654886931032 -1.3195350819169263 1.7053184085530029 -1.3494426690501753 L 1.7416318050574553 -1.8110164304733205 Q 1.7439847249173552 -1.8409240176065695 1.7391012367586585 -1.8553514755740657 Q 1.734217748599962 -1.869778933541562 1.7191968638887647 -1.8764776664436058 Q 1.7041759791775677 -1.8831763993456496 1.6702807137598854 -1.8858430418535361 Q 1.6672899550465603 -1.8860783338395262 1.6677605390185404 -1.892059851266176 Q 1.6682311229905202 -1.8980413686928257 1.6712218817038451 -1.8978060767068357 L 1.724977107881697 -1.892573901387908 Q 1.7706785468286856 -1.886972251793845 1.7985922948197182 -1.8847761932579385 Q 1.836475238521834 -1.8817958281020655 1.8864780784012423 -1.8798681341444494 L 1.941387085474196 -1.8765513673057415 Q 1.9433809246164124 -1.8763945059817482 1.9429103406444326 -1.8704129885550982 Q 1.9424397566724525 -1.8644314711284484 1.940445917530236 -1.864588332452442 Q 1.904556812970337 -1.8674118362843215 1.8871385962895157 -1.862763640111615 Q 1.8697203796086947 -1.858115443938908 1.862103157797539 -1.844169909460816 Q 1.8544859359863837 -1.8302243749827238 1.852133016126484 -1.8003167878494748 L 1.8362115917411623 -1.5979421149144888 L 2.1582166132091447 -1.5726090110895685 L 2.1741380375944663 -1.7749836840245543 Q 2.176490957454366 -1.8048912711578033 2.1716466846266678 -1.8198171889108539 Q 2.1668024117989697 -1.8347431066639042 2.1503253630621084 -1.8420579453444972 Q 2.133848314325247 -1.8493727840250904 2.0969622901942397 -1.8522747185189665 Q 2.093971531480915 -1.8525100105049566 2.0944421154528947 -1.8584915279316063 Q 2.094912699424875 -1.864473045358256 2.0979034581382 -1.8642377533722663 L 2.14667408646051 -1.8593977313633216 Q 2.1963632036919316 -1.8534823591212721 2.236239986536264 -1.8503451326414058 Q 2.2631568149561883 -1.848227504767496 2.313159654835597 -1.8462998108098798 L 2.3690655814796586 -1.8429046133091753 Q 2.3720563401929833 -1.8426693213231853 2.3715857562210036 -1.8366878038965355 Q 2.3711151722490236 -1.8307062864698858 2.3681244135356985 -1.8309415784558758 Q 2.334229148118016 -1.833608220963762 2.3173486065537476 -1.8294192692456113 Q 2.300468064989479 -1.8252303175274602 2.29388697808043 -1.8117048121729258 Q 2.287305891171381 -1.798179306818391 2.2849529713114816 -1.768271719685142 L 2.248639574807029 -1.3066979582619969 Q 2.246286654947129 -1.2767903711287476 2.2506324679892735 -1.2619036687066956 Q 2.2549782810314176 -1.2470169662846435 2.270536840859167 -1.2407774778371556 Q 2.286095400686917 -1.2345379893896675 2.3209875856757076 -1.2317929162197845 Q 2.3239783443890323 -1.2315576242337944 2.323507760417052 -1.2255761068071447 M 2.606836641924338 -1.1653809423808117 Q 2.607902553554936 -1.1505531363261132 2.6205326073336535 -1.1418507377172982 Q 2.6331626611123706 -1.1331483391084831 2.6639925388200663 -1.1245740379399587 Q 2.6668828398551625 -1.1237701972054095 2.665275158386064 -1.1179895951352168 Q 2.6636674769169657 -1.1122089930650239 2.6607771758818695 -1.113012833799573 Q 2.6289838644958086 -1.1218550818796138 2.6109465715183813 -1.1279095068767906 L 2.5379935588741214 -1.1492369058304015 L 2.46643151976356 -1.1681015436042488 Q 2.446894899284734 -1.1724970481562111 2.414138154220308 -1.1816072431477682 Q 2.412211286863577 -1.182143136970801 2.4138189683326754 -1.1879237390409938 Q 2.4154266498017734 -1.1937043411111867 2.4173535171585043 -1.193168447288154 Q 2.4481833948661995 -1.1845941461196297 2.4639746345992637 -1.185392110838711 Q 2.479765874332328 -1.1861900755577928 2.4889499897803256 -1.198686155880752 Q 2.4981341052283232 -1.2111822362037112 2.506172512573815 -1.2400852465546754 L 2.6302319326059025 -1.6861550396378902 Q 2.638270339951394 -1.7150580499888544 2.6367227114816134 -1.7300198294993114 Q 2.635175083011833 -1.744981609009768 2.6221972858496905 -1.754299697913524 Q 2.6092194886875486 -1.76361778681728 2.5783896109798534 -1.7721920879858044 Q 2.5764627436231224 -1.772727981808837 2.578070425092221 -1.77850858387903 Q 2.5796781065613192 -1.784289185949223 2.58160497391805 -1.78375329212619 L 2.6333624456382694 -1.7683207252259394 Q 2.6771445010200483 -1.7540682999394548 2.7041206440142815 -1.746565786416996 Q 2.7339870880436115 -1.738259432159988 2.778840931071456 -1.727860741586965 L 2.8282439955796117 -1.7151588827779949 Q 2.831134296614708 -1.7143550420434455 2.8295266151456095 -1.7085744399732528 Q 2.8279189336765116 -1.70279383790306 2.825028632641415 -1.703597678637609 Q 2.7951621886120854 -1.7119040328946171 2.779103001967505 -1.71014263449717 Q 2.7630438153229244 -1.708381236099723 2.7543414167141096 -1.6957511823210056 Q 2.7456390181052943 -1.6831211285422882 2.7376006107598028 -1.6542181181913238 L 2.614077084550748 -1.21007519246484 Q 2.60577073029374 -1.1802087484355104 2.606836641924338 -1.1653809423808117 M 2.9692775617345952 -1.4863595739490114 Q 2.9670863002492642 -1.4840795798475046 2.9627853678720633 -1.48667803721424 Q 2.958484435494862 -1.4892764945809756 2.9597725726012074 -1.491985867717931 Q 2.9805602315350916 -1.526393326735541 3.0123414221810028 -1.5815948296238524 Q 3.044122612826914 -1.6367963325121637 3.057862741961269 -1.665696312639687 Q 3.0600096371385117 -1.670211934534613 3.06497682122293 -1.6678503498396455 Q 3.069944005307348 -1.6654887651446784 3.067797110130105 -1.6609731432497528 Q 3.058350771350236 -1.6411044069120804 3.109828860952387 -1.6166298018915106 Q 3.1862094204387605 -1.5769938317059764 3.2900687240220483 -1.5276152426293885 Q 3.3433530623821692 -1.5022818795379216 3.403818029466084 -1.4757491119562847 L 3.46565986627252 -1.4474544619247656 Q 3.499978592673954 -1.431138058577719 3.5179301644834364 -1.4281395473522944 Q 3.5358817362929185 -1.4251410361268695 3.546838043719573 -1.436541006634403 Q 3.5494586842403524 -1.439724125114895 3.5544258683247705 -1.4373625404199277 Q 3.5593930524091886 -1.4350009557249606 3.557675536267394 -1.43138845820902 Q 3.542084792066981 -1.4055828639458126 3.5105848404009263 -1.3474794815568654 Q 3.4790848887348713 -1.2893760991679184 3.461909727316928 -1.2532511240085142 Q 3.460621590210582 -1.2505417508715588 3.456105968315656 -1.2526886460488016 Q 3.4515903464207307 -1.2548355412260448 3.4519753591480917 -1.2579742933984486 Q 3.4714906791928564 -1.3339555561120309 3.450993672519238 -1.3863303851563495 Q 3.4304966658456193 -1.4387052142006687 3.3763092031065125 -1.4644679563275842 Q 3.3501185961159443 -1.4769199483555933 3.3361716765724787 -1.4697099944550411 Q 3.3222247570290127 -1.4625000405544888 3.307196490788312 -1.43089068729001 L 3.1092527554465113 -1.0145503485778753 Q 3.095942005347605 -0.9865534928293369 3.095349445125235 -0.9713334773108537 Q 3.0947568849028655 -0.9561134617923708 3.1079631041683697 -0.9442983962948192 Q 3.1211693234338735 -0.9324833307972675 3.1545849254563225 -0.9165963064856697 Q 3.1572942985932775 -0.9153081693793239 3.1547180243805863 -0.9098894231054132 Q 3.1521417501678948 -0.9044706768315026 3.1494323770309394 -0.9057588139378483 Q 3.1169198993874754 -0.9212164592139976 3.098383666464237 -0.9311365433374031 L 3.0238537220439214 -0.9676781276586214 L 2.950271268310679 -1.0015547051509721 Q 2.930876277316543 -1.0096685405164074 2.897460675294094 -1.0255555648280055 Q 2.8947513021571387 -1.0268437019343513 2.8973275763698303 -1.0322624482082619 Q 2.899903850582522 -1.0376811944821724 2.9026132237194773 -1.0363930573758267 Q 2.9351257013629413 -1.0209354120996774 2.9530772731724233 -1.0179369008742527 Q 2.971028844981906 -1.0149383896488278 2.9831251494593136 -1.025242729413696 Q 2.9952214539367215 -1.0355470691785642 3.0081028250001793 -1.0626408005481174 L 3.206905318412877 -1.4807873880182225 Q 3.221504205618129 -1.5114936169037163 3.218528634632646 -1.5261955207705749 Q 3.2155530636471634 -1.5408974246374334 3.1902655810355802 -1.552920037629994 Q 3.0827937799363525 -1.6040161428483763 2.9692775617345952 -1.4863595739490114 M 3.645147443105804 -1.1350814371433637 Q 3.6425270295397367 -1.1333112866574533 3.6388661515384517 -1.1367533750147891 Q 3.6352052735371667 -1.1401954633721252 3.637032600600854 -1.1425747228792649 Q 3.6645693074595416 -1.171861746889545 3.707213162819495 -1.2191771946845238 Q 3.749857018179448 -1.2664926424795029 3.7693485068587824 -1.2918714105556603 Q 3.772394051964928 -1.29583684306756 3.776756027728018 -1.2924867434507994 Q 3.7811180034911076 -1.2891366438340388 3.7780724583849614 -1.2851712113221392 Q 3.764672059917919 -1.267723308269781 3.8098779905535745 -1.2330040940597171 Q 3.87625610269456 -1.1782414587268668 3.967461050468251 -1.1081939212855096 Q 4.014253154108666 -1.0722564890329873 4.0678150813082 -1.0336414666366203 L 4.122354072491263 -0.9930151396954152 Q 4.152491359581701 -0.969868996888706 4.169415918479495 -0.9631750215290946 Q 4.186340477377289 -0.9564810461694835 4.199442545207627 -0.9653317985990362 Q 4.202672067794923 -0.9678950355873267 4.207034043558013 -0.9645449359705661 Q 4.211396019321103 -0.9611948363538056 4.208959583236186 -0.958022490344286 Q 4.188307053092171 -0.936057222336576 4.145330054932714 -0.8858453947538034 Q 4.102353056773257 -0.8356335671710308 4.077988695924089 -0.8039101070758339 Q 4.076161368860403 -0.8015308475686942 4.0721959363485025 -0.8045763926748402 Q 4.068230503836603 -0.8076219377809861 4.069264744397911 -0.810610306309355 Q 4.10426984149686 -0.8808146023110468 4.095203992216607 -0.9363219025230707 Q 4.086138142936354 -0.9918292027350946 4.038552952793559 -1.0283757440088461 Q 4.015553444224541 -1.0460399056244927 4.000405259686567 -1.041912860046421 Q 3.985257075148593 -1.0377858144683492 3.9639382594055714 -1.010027786885052 L 3.6831390006189135 -0.6444149092879088 Q 3.6642566209608085 -0.6198292277141312 3.6604876136778794 -0.6050713625534372 Q 3.65671860639495 -0.5903134973927431 3.667155531829263 -0.5759932115199473 Q 3.6775924572635756 -0.5616729256471514 3.7069366578516325 -0.5391358918616712 Q 3.709315917358772 -0.5373085647979836 3.705661263231397 -0.5325500457837042 Q 3.7020066091040222 -0.5277915267694246 3.699627349596882 -0.5296188538331121 Q 3.671076235511205 -0.5515467785973631 3.655030527982456 -0.5651311545455561 L 3.589813457306152 -0.616480289809959 L 3.524964341592149 -0.6650250340271436 Q 3.5077004160209415 -0.6770232369705768 3.4783562154328846 -0.6995602707560569 Q 3.475976955925745 -0.7013875978197445 3.47963161005312 -0.706146116834024 Q 3.483286264180495 -0.7109046358483035 3.4856655236876346 -0.709077308784616 Q 3.514216637773312 -0.6871493840203651 3.5311411966711064 -0.6804554086607537 Q 3.548065755568901 -0.6737614333011425 3.562052898642194 -0.6813019789476615 Q 3.5760400417154865 -0.6888425245941807 3.5943133123523623 -0.7126351196655782 L 3.8763307891814787 -1.0798341702674814 Q 3.897040495903271 -1.1067991113483986 3.897212025636602 -1.1217981305680205 Q 3.897383555369933 -1.1367971497876423 3.8751771333032954 -1.1538522023820597 Q 3.7807998395200846 -1.2263361759083335 3.645147443105804 -1.1350814371433637 M 4.277177662532042 0.10195481967010211 Q 4.272559882695867 0.10578576072741575 4.269367431814772 0.10193761086393616 Q 4.256597628290393 0.08654501141001791 4.23132030083459 0.05294357220435153 Q 4.204765993026348 0.017802873053293422 4.192634679678189 0.0031799035720709856 Q 4.176672425272716 -0.0160608457453269 4.152147518983442 -0.04249054440994199 Q 4.128899593046607 -0.06738098312916524 4.116129789522228 -0.0827735825830836 Q 4.1135758288173525 -0.08585210247386726 4.118193608653527 -0.08968304353118084 Q 4.122811388489703 -0.09351398458849447 4.125365349194579 -0.0904354646977108 Q 4.141966093776271 -0.070425085407617 4.153541695652616 -0.06508603669081808 Q 4.165117297528962 -0.05974698797401912 4.175892117146705 -0.06868585044108422 Q 4.188975826682535 -0.07954018343680608 4.2069912220659935 -0.12047238993948173 L 4.298362388141887 -0.3314043932247382 L 4.184711136774917 -0.4683985283646112 L 4.018546428550113 -0.4227992987596488 Q 3.987926787051086 -0.4142882732943466 3.968686037733688 -0.3983260188888733 Q 3.940979358716635 -0.3753403725449917 3.9418682587563 -0.3429450047168672 Q 3.9427571587959642 -0.3105496368887427 3.9702122363733783 -0.2774555480628183 Q 3.973404687254473 -0.27360739819933877 3.9687869074182975 -0.26977645714202514 Q 3.964169127582122 -0.2659455160847115 3.9609766767010273 -0.2697936659481911 Q 3.9494838535290864 -0.2836470054567176 3.929314447483035 -0.3110914048808166 Q 3.906591080732107 -0.34161432419569926 3.888713355797977 -0.3631639634311849 Q 3.8714741210400656 -0.3839439726939746 3.8456722343983545 -0.41191293130398154 Q 3.822424308461519 -0.43680337002320485 3.809016014760921 -0.45296559944981907 Q 3.8064620540560457 -0.45604411934060274 3.811079833892221 -0.4598750603979163 Q 3.8156976137283967 -0.46370600145522994 3.818251574433272 -0.4606274815644463 Q 3.8361292993674025 -0.43907784232896063 3.857111357401565 -0.4317975098742559 Q 3.878093415435728 -0.42451717741955125 3.912928812978417 -0.42872966813678737 Q 3.9477642105211066 -0.43294215885402354 4.009003493519161 -0.4499642097846278 L 4.514669358734622 -0.5875143197660451 Q 4.518255229005147 -0.58789053034931 4.52272466023868 -0.5825031205404386 Q 4.527832581648432 -0.5763460807588714 4.526162181906563 -0.5736609802575185 L 4.307126779394905 -0.06711632038382465 Q 4.274830207501158 0.00515353117207662 4.268735472291404 0.04009425530199384 Q 4.262640737081649 0.07503497943191118 4.278602991487123 0.094275728749309 Q 4.281795442368217 0.0981238786127886 4.277177662532042 0.10195481967010211 M 4.214561148301248 -0.4762710636536944 L 4.310973164910307 -0.3600569377766112 L 4.381495486498747 -0.5225087834348758 L 4.214561148301248 -0.4762710636536944" fill="#382d5e" fill-rule="nonzero"></path></g><g><path d=" M -1.254685637552 2.312454205226925 Q -1.260665046134529 2.312950867086924 -1.2608306000878622 2.3109577308927474 Q -1.2638105712478565 2.275081279397573 -1.293282373957354 2.240401849686973 Q -1.3227541766668516 2.205722419976373 -1.3709968414562366 2.180629686087475 L -1.5873819843297134 2.06414161827096 L -1.8136029423687299 2.0829319919742573 Q -1.8444965533784634 2.0854980782509194 -1.8579518448776988 2.092636364506779 Q -1.8714071363769342 2.0997746507626394 -1.8749413797707113 2.1176284773450154 Q -1.8784756231644881 2.135482303927391 -1.875330098051161 2.1733518916167416 Q -1.8750817671211613 2.1763415959080064 -1.8810611757036904 2.176838257768005 Q -1.8870405842862195 2.177334919628004 -1.887288915216219 2.1743452153367397 Q -1.8898550014928808 2.1434516043270064 -1.8902656419991233 2.1264271696998405 L -1.8950634622686906 2.0565846259270018 L -1.901771641755768 1.987904204204584 Q -1.9042581954328532 1.9700487554336632 -1.9068242817095151 1.9391551444239297 Q -1.9070726126395146 1.9361654401326651 -1.9010932040569855 1.935668778272666 Q -1.8951137954744564 1.9351721164126672 -1.894865464544457 1.9381618207039315 Q -1.8917199394311295 1.9760314083932824 -1.8852885018540249 1.993057465208993 Q -1.87885706427692 2.0100835220247033 -1.863868776520809 2.0153609484941124 Q -1.8488804887646981 2.020638374963521 -1.8189834458520528 2.018155065663526 L -1.6087075773664472 2.0006891235868927 L -1.3802825079006604 1.8151440141402935 Q -1.3387512669754429 1.783597920448498 -1.3238790337416066 1.757276509417963 Q -1.3090068005077702 1.7309550983874278 -1.311738440737765 1.698068351183518 Q -1.3119867716677645 1.6950786468922534 -1.3060073630852354 1.6945819850322543 Q -1.3000279545027063 1.6940853231722552 -1.2997796235727068 1.6970750274635198 Q -1.2987862998527087 1.709033844628578 -1.2987927886068888 1.7331170329120273 L -1.296892162520649 1.76807969328678 Q -1.294077745313988 1.801963008587778 -1.2877802063331532 1.8536189956830302 L -1.2823136814960736 1.9073508959491254 Q -1.2821481275427407 1.9093440321433017 -1.2881275361252695 1.9098406940033008 Q -1.2941069447077986 1.9103373558633 -1.2942724986611316 1.9083442196691236 Q -1.29857690144779 1.8565226786205382 -1.3195048314866418 1.8582609951305349 Q -1.3304670805546117 1.8591715418738666 -1.3435912641471812 1.8702961005180794 L -1.5654542418166835 2.0502789306425724 L -1.3689972165078799 2.1563809438506927 Q -1.3322962396231306 2.175408247803305 -1.3083786052930142 2.1734216003633087 Q -1.27250215379784 2.1704416292033146 -1.2769721105378313 2.1166269519605527 Q -1.2771376644911645 2.1146338157663767 -1.2711582559086354 2.1141371539063774 Q -1.2651788473261063 2.1136404920463785 -1.2650132933727734 2.1156336282405546 L -1.2621193435665354 2.1625551057803656 Q -1.2609669546473845 2.200590247423049 -1.2583180913940561 2.232480426529871 Q -1.2569108827907256 2.2494220841803703 -1.252931099156553 2.2731741645571533 L -1.2488717829228042 2.3099644071727496 Q -1.248706228969471 2.3119575433669257 -1.254685637552 2.312454205226925 M -1.7575068188138299 2.6861604068644316 Q -1.7386680969246233 2.6037370936722217 -1.680115108149416 2.543057216402319 Q -1.6215621193742085 2.4823773391324164 -1.5379116520652372 2.4550533694539327 Q -1.4400025823740545 2.423071904943889 -1.35398944861848 2.449680001860911 Q -1.2679763148629055 2.476288098777933 -1.2074993737353101 2.5422713511367654 Q -1.1470224326077152 2.608254603495598 -1.120629961895543 2.6890533503281273 Q -1.091132494628998 2.7793578320821304 -1.1110770398380705 2.861616358183704 Q -1.131021585047143 2.9438748842852775 -1.1884592132395666 3.0031384385798767 Q -1.2458968414319902 3.062401992874476 -1.323843867788077 3.087862964620336 Q -1.4103460555734908 3.116118433265132 -1.4974936244376846 3.0940888794552928 Q -1.5846411933018785 3.0720593256454536 -1.6514616492190681 3.0092001443668295 Q -1.718282105136258 2.946340963088206 -1.7474690727473658 2.85698705482635 Q -1.7763455407030362 2.7685837200566414 -1.7575068188138299 2.6861604068644316 M -1.6472344084400286 2.9899353984459505 Q -1.5989432519778304 3.031495165138552 -1.5283258093341212 3.041566252193207 Q -1.457708366690412 3.051637339247862 -1.3740578993814405 3.024313369569378 Q -1.2847039911195848 2.99512640195827 -1.2261796141331305 2.9391898548861874 Q -1.1676552371466764 2.883253307814104 -1.1483984520889026 2.810161405189814 Q -1.1291416670311287 2.737069502565524 -1.1555341377433006 2.6562707557329945 Q -1.1896890998414054 2.5517076715967804 -1.2764307964209847 2.5148175906196912 Q -1.363172493000564 2.4779275096426017 -1.481043606026842 2.5164294669168292 Q -1.5703975142886977 2.5456164345279366 -1.6331994719898153 2.6029502300494882 Q -1.6960014296909327 2.6602840255710394 -1.7187404717989412 2.733987390243286 Q -1.7414795139069497 2.807690754915533 -1.7166395414719642 2.883736634287325 Q -1.6955255649022267 2.9483756317533487 -1.6472344084400286 2.9899353984459505 M -1.384050416630116 3.5723646642925866 Q -1.3924864798388086 3.4815140570434386 -1.3548743951783535 3.4068442432798114 Q -1.3172623105178982 3.3321744295161846 -1.2423784638650437 3.2840765136520664 Q -1.1607634849287864 3.231655189620388 -1.0709080317351019 3.2327721190530556 Q -0.9810525785414173 3.233889048485724 -0.8989672832417983 3.283971523420319 Q -0.8168819879421794 3.3340539983549142 -0.7579755516591585 3.425765675716275 Q -0.7314946766328465 3.4669938609521163 -0.7154389382873282 3.5095698314775228 Q -0.6993831999418099 3.552145802002929 -0.6985549274575764 3.5848920073509056 Q -0.6984384769671419 3.594325269739034 -0.7005727083097129 3.59747884811548 Q -0.7027069396522838 3.600632426491926 -0.7114218205210173 3.607418504257748 L -0.7991725602373128 3.678042917028708 Q -0.8016967348435888 3.6796641950915436 -0.8050897737264997 3.6753067546571767 Q -0.8084828126094108 3.67094931422281 -0.8064990640240799 3.668486644624549 Q -0.7578082459342491 3.6110653573371416 -0.756068472257007 3.5416087292333245 Q -0.7543286985797648 3.472152101129507 -0.7997244843391571 3.401475212153779 Q -0.8678181629782453 3.2954598786901874 -0.9665291405095096 3.276854962274835 Q -1.0652401180407738 3.2582500458594827 -1.172096843039791 3.326884150519516 Q -1.2537118219760481 3.3793054745511952 -1.296731446608753 3.4538830308027992 Q -1.3397510712414575 3.5284605870544032 -1.3381010857985867 3.610596313434818 Q -1.3364511003557158 3.6927320398152323 -1.2894340365334882 3.765933103397236 Q -1.2618723094652857 3.8088440717039282 -1.2391678570599938 3.8275392005073314 Q -1.2164634046547018 3.846234329310734 -1.1875616864613563 3.8431213427266897 Q -1.1586599682680108 3.8400083561426452 -1.1157489999613188 3.8124466290744428 Q -1.0719966401192016 3.7843444759852956 -1.0582608827791256 3.767796697575655 Q -1.0445251254390497 3.751248919166015 -1.0507949701623382 3.728534627472329 Q -1.0570648148856265 3.7058203357786432 -1.0867882460376097 3.65954380133025 Q -1.0900308021632805 3.6544954521176978 -1.0832996698798778 3.650172043950137 Q -1.0807754952736017 3.6485507658873013 -1.0778613774036208 3.6484617881380763 Q -1.0749472595336398 3.6483728103888518 -1.0738664074917494 3.6500555934597023 Q -1.0359201355351548 3.718386263327604 -1.0099796865297879 3.75877305702802 Q -0.9845796635453661 3.7983184591930104 -0.9544937618708876 3.839608149436867 Q -0.9534129098289974 3.8412909325077176 -0.954705749636143 3.8439040848632184 Q -0.9559985894432885 3.8465172372187193 -0.9576813725141393 3.8475980892606096 Q -0.9635711132621165 3.851381071407226 -0.9662732433668424 3.847174113730099 Q -0.9784020763341005 3.8264402908589457 -0.9901167730592418 3.822079570661781 Q -1.0018314697843833 3.8177188504646162 -1.0228047531620015 3.827624474340079 Q -1.0437780365396194 3.837530098215541 -1.0917373540588633 3.868334381409414 Q -1.1295999731530033 3.8926535523519457 -1.1436949212527767 3.905866517123892 Q -1.15778986935255 3.9190794818958388 -1.1619968270296765 3.921781612000564 Q -1.1670451762422287 3.9250241681262352 -1.1698088113549696 3.924422237097275 Q -1.1725724464677105 3.923820306068315 -1.178038211685177 3.9190114173622277 Q -1.266988723211449 3.8323349701622265 -1.3167079171384024 3.754926948903096 Q -1.3756143534214231 3.6632152715417345 -1.384050416630116 3.5723646642925866 M -0.1451295288048322 4.276769164042207 Q -0.14706531591897987 4.279061047165034 -0.1512077523093831 4.276216715828593 Q -0.15535018869978612 4.273372384492151 -0.1541783626265808 4.270435238997941 Q -0.12227134006613172 4.228009516713848 -0.12539097029767432 4.186760057235954 Q -0.12851060052921714 4.14551059775806 -0.1651807304944506 4.114538003931696 L -0.2117823539919349 4.075176999277359 Q -0.23775702938397525 4.053238078650352 -0.2539706789369083 4.04608842354156 Q -0.2701843284898413 4.038938768432768 -0.28353848608394017 4.044676056551032 Q -0.2968926436780389 4.0504133446692965 -0.3130242029626032 4.0695123706928555 L -0.4543366622953862 4.236819838659233 L -0.3771765971602074 4.301991338168873 Q -0.3366866619902621 4.336190243852149 -0.3088507094412465 4.338103290032708 Q -0.28101475689223077 4.340016336213266 -0.2571400491510757 4.3117497776984 Q -0.25584952440831055 4.310221855616515 -0.2512657581626563 4.31409342984481 Q -0.24668199191700224 4.3179650040731055 -0.24797251665976727 4.31949292615499 L -0.30100272978269793 4.380728508099939 Q -0.31971533855279244 4.402883378287267 -0.3286303130825887 4.414988056272786 L -0.3588389458680097 4.452303448609402 Q -0.3601294706107748 4.453831370691287 -0.3647132368564291 4.449959796462991 Q -0.36929700310208324 4.446088222234696 -0.3680064783593181 4.444560300152811 Q -0.33961493401848497 4.410946014351347 -0.34530803342436167 4.381267088845951 Q -0.3510011328302384 4.351588163340557 -0.3930189900820685 4.316098732914515 L -0.4678871720944202 4.2528630205190225 L -0.6085543690558206 4.419406527444458 Q -0.6292027649400629 4.443853280754614 -0.6320654004771 4.4604154460050305 Q -0.6349280360141373 4.476977611255446 -0.6197005842188736 4.497692936785665 Q -0.6044731324236099 4.518408262315884 -0.5632192362127222 4.553252430370542 Q -0.560927353089895 4.55518821748469 -0.5647989273181906 4.559771983730344 Q -0.5686705015464859 4.564355749975999 -0.570962384669313 4.56241996286185 Q -0.60228478734795 4.535964205635165 -0.6192106289182417 4.5203592100524235 L -0.6873218602316721 4.46152163558705 L -0.7399164733871354 4.418407755373977 Q -0.7543130344954806 4.407556993730034 -0.7795237488465786 4.386263335474409 Q -0.7810516709284633 4.384972810731643 -0.7771800967001679 4.380389044485989 Q -0.7733085224718724 4.375805278240335 -0.7717806003899877 4.3770958029831 Q -0.7427500808341778 4.401615773095638 -0.7257724702403024 4.409410690575813 Q -0.7087948596464271 4.417205608055987 -0.6944728084952544 4.410322378376309 Q -0.6801507573440817 4.4034391486966316 -0.6607928862026047 4.380520317468361 L -0.3620364082524743 4.026806355512046 Q -0.34267853711099716 4.003887524283775 -0.33861061067776654 3.988997864296595 Q -0.334542684244536 3.9741082043094154 -0.3443630594184232 3.958614327085037 Q -0.3541834345923105 3.9431204498606593 -0.3832139541481203 3.9186004797481218 Q -0.38474187623000505 3.9173099550053565 -0.3808703020017096 3.9127261887597022 Q -0.3769987277734142 3.9081424225140484 -0.37547080569152946 3.9094329472568132 L -0.0683584672326989 4.1688284205526065 Q -0.06148281786421761 4.17463578189505 -0.0672901792066607 4.181511431263531 L -0.1451295288048322 4.276769164042207 M -0.0964900489183794 4.859204987232542 Q -0.14068191172624023 4.787124620546661 -0.14128304986801582 4.702802982558926 Q -0.14188418800979144 4.618481344571192 -0.10121743433735164 4.540441514063014 Q -0.05361884765256414 4.449099439718215 0.026461579408226354 4.407948799361577 Q 0.1065420064690169 4.366798159004938 0.19591605274511636 4.371648916908361 Q 0.28529009902121594 4.376499674811785 0.3606694807620694 4.4157800618817555 Q 0.4449170250606702 4.459681670959958 0.4882033575398206 4.532417792801203 Q 0.5314896900189708 4.605153914642448 0.5318971952062065 4.687683206045697 Q 0.5323047003934421 4.770212497448946 0.49441067992594134 4.842931430422475 Q 0.4523575596510321 4.923631709697977 0.3746690921112825 4.9688478794973445 Q 0.29698062457153307 5.014064049296713 0.20525853914544606 5.015883127384536 Q 0.11353645371935911 5.017702205472359 0.030175725676532872 4.97426271859498 Q -0.05229818611051856 4.931285353918424 -0.0964900489183794 4.859204987232542 M 0.19480388480550714 4.999158887412794 Q 0.2583854033723958 4.995079610917091 0.31589593628198387 4.952880219873437 Q 0.3734064691915717 4.910680828829784 0.4140732228640116 4.832640998321606 Q 0.45751270974139047 4.7492802702787795 0.46020906144936646 4.668368406578412 Q 0.46290541315734246 4.587456542878044 0.42553959114939643 4.521752316639008 Q 0.3881737691414504 4.456048090399971 0.31279438740059684 4.416767703330001 Q 0.21524459926537476 4.365934261239452 0.12745131514889468 4.400246638948421 Q 0.039658031032414665 4.434559016657391 -0.017645121869659608 4.54452423237346 Q -0.06108460874703847 4.627884960416286 -0.06586051035871876 4.71278749726764 Q -0.07063641197039905 4.797690034118994 -0.035331425793221516 4.8662670561528305 Q -0.000026439616043927305 4.934844078186667 0.0709188608459358 4.971813854252521 Q 0.13122236623861855 5.003238163908498 0.19480388480550714 4.999158887412794 M 1.2382201907571257 5.360868130433469 Q 1.2368405682279462 5.366707363403387 1.2348941572379735 5.3662474892269945 L 1.1093506483847313 5.336585604849634 Q 1.0850205110100721 5.330837177644718 1.0380155556443142 5.231877417281917 Q 0.9910106002785567 5.1329176569191155 0.930816836263971 4.961483381542934 Q 0.905850344766922 4.962777329891121 0.8766541799173309 4.955879217245222 Q 0.8581632755125898 4.951510412569487 0.8333198068193373 4.943585637286403 L 0.7785947798285475 5.1752085450931595 Q 0.7714667300944531 5.2053779154377375 0.7740868438296191 5.220382414896726 Q 0.7767069575647849 5.235386914355715 0.7925883682860635 5.244276840874087 Q 0.8084697790073421 5.253166767392459 0.8454515878168243 5.26190437674393 Q 0.8483712043017833 5.26259418800852 0.8469915817726037 5.268433420978438 Q 0.8456119592434241 5.274272653948357 0.8426923427584652 5.2735828426837665 Q 0.8125229724138875 5.266454792949672 0.7952352105923294 5.261342719867147 L 0.7283139685264662 5.244503855286595 L 0.6619060577791963 5.2298413387842135 Q 0.6441584217812449 5.226675676691661 0.6120426404466947 5.219087752781173 Q 0.6100962294567219 5.218627878604781 0.6114758519859015 5.212788645634862 Q 0.612855474515081 5.206949412664944 0.6148018855050538 5.207409286841337 Q 0.651783694314536 5.216146896192807 0.670566047209372 5.214933133557921 Q 0.689348400104208 5.213719370923035 0.6993799578038649 5.201704053610602 Q 0.7094115155035219 5.1896887362981685 0.7163096281494197 5.160492571448578 L 0.8227704999844433 4.709898427269887 Q 0.8296686126303411 4.680702262420295 0.8265618961476819 4.665582794417209 Q 0.8234551796650229 4.650463326414122 0.8076887374878428 4.641086797148256 Q 0.7919222953106624 4.631710267882391 0.7549404865011802 4.62297265853092 Q 0.7520208700162212 4.62228284726633 0.7534004925454008 4.616443614296412 Q 0.7547801150745803 4.610604381326493 0.7576997315595394 4.6112941925910835 L 0.8051568637256751 4.623534315407703 Q 0.8455716203387096 4.635138084101933 0.8708749632083552 4.641116448395044 Q 0.88839266211811 4.645255315982583 0.9041938871260885 4.6479611038987425 Q 0.919995112134067 4.650666891814901 0.9319035151621002 4.652452931378274 Q 0.9637359022662539 4.656891301715606 0.9890392451358996 4.662869666008717 Q 1.067868890229796 4.681494570152641 1.1031020080987086 4.723727583367842 Q 1.1383351259676213 4.765960596583042 1.1247688377640221 4.823379720787239 Q 1.1137318575305857 4.870093584546584 1.076709777422612 4.905016579614001 Q 1.0396876973146383 4.939939574681417 0.9891718173403501 4.9536926059990325 Q 1.0426922742132243 5.096834356359013 1.0826976911163775 5.179754900365941 Q 1.1227031080195304 5.262675444372869 1.1592543370157244 5.3036785864337865 Q 1.1958055660119185 5.344681728494704 1.2376534022963326 5.354569023287158 Q 1.2395998132863053 5.355028897463551 1.2382201907571257 5.360868130433469 M 0.8955676098756618 4.936714610095288 Q 0.9627187890297215 4.952580269180853 0.9986980979811122 4.930768819724653 Q 1.034677406932503 4.908957370268453 1.0505430660180681 4.841806191114394 Q 1.0838839438065744 4.700691394341369 0.9651528734182369 4.672639069581384 Q 0.9388763250536047 4.666430768200076 0.9247033339744041 4.667706042236861 Q 0.9105303428952033 4.668981316273646 0.9013570221464344 4.681713173421769 Q 0.8921837013976656 4.6944450305698915 0.884595777487178 4.7265608119044416 L 0.8390682340242521 4.919255499911744 Q 0.862478623046125 4.928896749096604 0.8955676098756618 4.936714610095288 M 1.761639016823355 4.817242750994518 Q 1.7328142964167175 4.851672178719636 1.7250515589313558 4.929548618717452 Q 1.7252123881145711 4.931542141723044 1.7197301998491918 4.931984421976886 Q 1.7142480115838126 4.932426702230728 1.7140871824005974 4.930433179225136 Q 1.7151793031139086 4.8942281067580415 1.7154990643146486 4.836013866637822 Q 1.7158188255153888 4.777799626517604 1.7134868023587684 4.748893542936513 Q 1.7130847294007303 4.743909735422532 1.7185669176661096 4.74346745516869 Q 1.7240491059314886 4.743025174914848 1.7244511788895267 4.748008982428829 Q 1.726220299904894 4.7699377354903465 1.78004542105589 4.7655953475435355 Q 1.8650113925683915 4.761750391765278 1.9806357268927535 4.7524222991387965 Q 2.0394446555577304 4.7476778382339475 2.105070085559066 4.740376952182253 L 2.1727694531576014 4.73391199845014 Q 2.2086528672582655 4.731017073152266 2.225694120599161 4.724626010285152 Q 2.2427353739400573 4.718234947418038 2.2465129625799243 4.702881451918056 Q 2.24718806571629 4.698813991315264 2.252171873230271 4.698411918357226 Q 2.257155680744252 4.698009845399188 2.2574773391106824 4.701996891410373 Q 2.2568190777589145 4.731144218766286 2.2585732541553742 4.790194391206086 Q 2.2603274305518344 4.849244563645886 2.2633027704413156 4.886124739249346 Q 2.2634635996245307 4.888118262254939 2.2574830306077533 4.888600749804584 Q 2.2515024615909764 4.88908323735423 2.251341632407761 4.887089714348638 Q 2.2420790097539793 4.809583560905355 2.2106398665372495 4.780517596723895 Q 2.1792007233205193 4.751451632542434 2.1124177026331723 4.7568394101801434 Q 2.0675634350073424 4.760458066802485 2.048946624820645 4.765972990054215 Q 2.030329814633947 4.771487913305944 2.024397873805272 4.785008714983548 Q 2.0184659329765973 4.798529516661152 2.020958785316433 4.829429123247835 L 2.0580299120475383 5.288936176036894 Q 2.060522764387374 5.319835782623577 2.068625899189454 5.33322754152147 Q 2.0767290339915343 5.3466193004193645 2.0970663370054967 5.349994816101193 Q 2.117403640019459 5.353370331783022 2.1602643846396967 5.349912504343895 Q 2.163254669148085 5.349671260569073 2.1637371566977306 5.35565182958585 Q 2.1642196442473765 5.3616323986026275 2.1612293597389876 5.36187364237745 Q 2.1283362301467124 5.364527323900501 2.10832058549918 5.365138854229857 L 2.0304927736894673 5.3704144308724535 L 1.9558160755713585 5.37744228674582 Q 1.9359612601070415 5.380047340080768 1.9010746075091738 5.382861850787035 Q 1.8990810845035815 5.383022679970249 1.8985985969539358 5.3770421109534725 Q 1.8981161094042902 5.371061541936695 1.9001096324098825 5.37090071275348 Q 1.94297037703012 5.367442885314353 1.9625035341280066 5.3608507859682195 Q 1.9820366912258929 5.354258686622087 1.9883463909185544 5.3392025353944845 Q 1.9946560906112158 5.324146384166882 1.9922436528629877 5.294243539082996 L 1.9550116969486673 4.832742963288345 Q 1.9525188446088317 4.801843356701662 1.944536331694163 4.789946740057962 Q 1.9365538187794944 4.778050123414263 1.9173338991557396 4.776089335395021 Q 1.8981139795319848 4.774128547375778 1.853259711906155 4.77774720399812 Q 1.7904637372299927 4.7828133232694 1.761639016823355 4.817242750994518 M 3.21375303544615 5.0830070395868745 Q 3.2156472010429646 5.0887002053750665 3.2128006181488686 5.089647288173474 Q 3.183385928243208 5.099433810423682 3.165990736612495 5.104167446249427 L 3.1002036357821465 5.1250014896480955 L 3.031252479625275 5.148996032040705 Q 3.0144886765268337 5.155627389795846 2.9860228475858714 5.165098217779919 Q 2.9831762646917754 5.166045300578326 2.981282099094961 5.160352134790134 Q 2.9793879334981463 5.154658969001942 2.982234516392243 5.153711886203535 Q 3.019240094015493 5.14139980982424 3.0347411200493912 5.130973008210303 Q 3.05024214608329 5.120546206596366 3.051832175494863 5.1047357098783515 Q 3.0534222049064366 5.088925213160338 3.043951376922364 5.060459384219375 L 2.970078918646597 4.838425918479873 L 2.6057163082022843 4.959652516676003 L 2.679588766478051 5.181685982415505 Q 2.6890595944621234 5.210151811356467 2.6998047575916337 5.221858282614717 Q 2.710549920721144 5.233564753872966 2.7292078894164 5.232626561906016 Q 2.747865858111656 5.231688369939066 2.7848714357349063 5.219376293559772 Q 2.786769157664304 5.2187449050275 2.7886633232611184 5.224438070815692 Q 2.790557488857933 5.230131236603885 2.7886597669285353 5.2307626251361565 Q 2.7592450770228747 5.240549147386365 2.741849885392162 5.24528278321211 L 2.6732162016677172 5.267063909409186 L 2.608060489369641 5.289795674737251 Q 2.5912966862711992 5.296427032492393 2.5609331354008398 5.3065292490087375 Q 2.5590354134714426 5.307160637541009 2.557141247874628 5.301467471752817 Q 2.5552470822778135 5.295774305964624 2.5571448042072107 5.2951429174323525 Q 2.5932015208657626 5.283146535319194 2.6091769773820106 5.272561886572189 Q 2.625152433898258 5.2619772378251835 2.6267424633098315 5.24616674110717 Q 2.628332492721405 5.230356244389156 2.618861664737332 5.201890415448194 L 2.4726952195164777 4.762567788792682 Q 2.463224391532405 4.734101959851719 2.4526370755359626 4.722869919075819 Q 2.44204975953952 4.7116378782999195 2.4232339437111965 4.71210163978452 Q 2.4044181278828725 4.712565401269121 2.368361411224321 4.7245617833822795 Q 2.3664636892949233 4.725193171914551 2.364569523698109 4.719500006126358 Q 2.3626753581012943 4.713806840338166 2.364573080030692 4.713175451805895 L 2.413280683496463 4.69802390519767 Q 2.453764232546081 4.686662467949366 2.4774857566635493 4.678770111295972 Q 2.5050027246398123 4.669614977578035 2.546121218554285 4.653826707938665 L 2.5913508505936886 4.637724522199449 Q 2.5932485725230863 4.637093133667178 2.5951427381199004 4.64278629945537 Q 2.597036903716715 4.648479465243563 2.5951391817873177 4.649110853775834 Q 2.559082465128766 4.661107235888993 2.543422702878654 4.672640745600696 Q 2.527762940628542 4.6841742553124 2.5261729112169684 4.6999847520304145 Q 2.5245828818053955 4.715795248748428 2.5340537097894678 4.744261077689391 L 2.5990867286134334 4.939726436417329 L 2.963449339057746 4.818499838221199 L 2.898416320233781 4.623034479493261 Q 2.888945492249708 4.594568650552299 2.878200329120198 4.582862179294049 Q 2.8674551659906875 4.5711557080358 2.848481503029296 4.5711450390380515 Q 2.8295078400679046 4.571134370040302 2.792502262444654 4.583446446419597 Q 2.789655679550558 4.584393529218004 2.7877615139537433 4.578700363429812 Q 2.7858673483569287 4.573007197641619 2.7887139312510247 4.572060114843212 L 2.8345749518226997 4.557855651033394 Q 2.876956222801715 4.545862825252819 2.9044731907779786 4.536707691534882 Q 2.9300924368248444 4.528183946349216 2.9693132088099192 4.513027065242118 L 3.0154917018140215 4.496609185236767 Q 3.018338284708118 4.495662102438359 3.0202324503049325 4.501355268226552 Q 3.0221266159017466 4.507048434014744 3.0192800330076506 4.507995516813152 Q 2.9832233163490987 4.51999189892631 2.9678801374482684 4.530893131022597 Q 2.9525369585474377 4.541794363118884 2.950789082002797 4.557130429354548 Q 2.9490412054581556 4.572466495590213 2.9585120334422284 4.600932324531175 L 3.1046784786630828 5.040254951186688 Q 3.114149306647155 5.0687207801276495 3.1248944697766654 5.080427251385898 Q 3.1356396329061758 5.092133722644148 3.1542976016014315 5.091195530677198 Q 3.1729555702966876 5.090257338710248 3.2090122869552395 5.078260956597089 Q 3.2118588698493356 5.077313873798682 3.21375303544615 5.0830070395868745 M 3.7308910726324798 4.616291962803612 Q 3.7334554037913814 4.614734976706216 3.7361113417895986 4.614292265344686 Q 3.7387672797878153 4.613849553983155 3.739805270519413 4.61555910808909 Q 3.7648089850880346 4.674081020718215 3.800619665328154 4.733060637372954 Q 3.804771628254545 4.739898853796691 3.8035963923494553 4.744707057262373 Q 3.802421156444366 4.749515260728054 3.794728162967661 4.754186219020243 L 3.4365765777743937 4.971645277289955 Q 3.4348670236684593 4.9726832680215525 3.4317530514736663 4.967554605703749 Q 3.4286390792788732 4.962425943385946 3.4303486333848077 4.961387952654348 Q 3.4628301613975623 4.941666128753992 3.4751937829954946 4.928309824587677 Q 3.487557404593427 4.914953520421361 3.4855880226336304 4.899185783275644 Q 3.4836186406738343 4.883418046129926 3.4680487796998696 4.85777473454091 L 3.227753925335009 4.462012959017085 Q 3.212184064361044 4.436369647428068 3.1993620783955734 4.427776238564219 Q 3.1865400924301026 4.41918282970037 3.168727019491283 4.423563974810531 Q 3.1509139465524627 4.42794511992069 3.118432418539708 4.447666943821046 Q 3.1167228644337737 4.4487049345526435 3.1136088922389806 4.44357627223484 Q 3.1104949200441876 4.438447609917037 3.112204474150122 4.4374096191854395 L 3.4558248494429464 4.228773482134308 Q 3.463517842919652 4.224102523842118 3.4681888012118414 4.231795517318823 L 3.533734785311032 4.335895104102194 Q 3.5352917714084287 4.338459435261096 3.531277383826492 4.341481800616574 Q 3.527262996244555 4.344504165972052 3.5248512330941915 4.342458830178948 Q 3.4947801475479516 4.2987126324690825 3.454681249720837 4.288547575014715 Q 3.4145823518937215 4.278382517560348 3.3735530533512947 4.303294295118692 L 3.3214116531202937 4.334953012432421 Q 3.291494456266441 4.35311785023538 3.280245109404375 4.366382547562381 Q 3.2689957625423096 4.379647244889382 3.270446149136307 4.394560204982131 Q 3.2718965357303045 4.409473165074881 3.285909410606873 4.432552145504997 L 3.3912654698640363 4.606071887257343 L 3.495548270326038 4.542754452629885 Q 3.5365775688684646 4.517842675071542 3.5457965726015113 4.49352683722519 Q 3.555015576334558 4.469210999378838 3.5352937524342023 4.436729471366084 Q 3.534255761702605 4.435019917260149 3.539384424020408 4.431905945065356 Q 3.5445130863382115 4.428791972870563 3.545551077069809 4.430501526976498 L 3.5867349246465476 4.500257463632641 Q 3.6017857902547137 4.525045998168691 3.6104254977946635 4.5373486585974 L 3.6361920524059745 4.577858961774028 Q 3.6372300431375724 4.579568515879963 3.632101380819769 4.582682488074756 Q 3.626972718501966 4.585796460269549 3.625934727770368 4.5840869061636145 Q 3.6030989316752193 4.546476715833056 3.574860313086246 4.541394352191354 Q 3.546621694497273 4.5363119885496515 3.5038828418489114 4.562261756839593 L 3.402164372545812 4.624022205369655 L 3.521533306679544 4.820620927552117 Q 3.536065176921911 4.844554685035199 3.547940778995099 4.85255281452898 Q 3.5598163810682877 4.86055094402276 3.5760877907447575 4.856520903434816 Q 3.5923592004212272 4.85249086284687 3.6214216202221126 4.83484502040971 L 3.6898037844594906 4.793325391145803 Q 3.7308330830019174 4.768413613587459 3.7405401062597083 4.722743342081011 Q 3.7502471295174993 4.677073070574562 3.7285099551522087 4.6200774983727415 Q 3.727471964420611 4.618367944266807 3.7308910726324798 4.616291962803612 M 4.006842416765198 4.003810416890191 Q 4.040957138688011 4.009989878689503 4.0736873845998 4.003827005775525 Q 4.106417630511588 3.997664132861547 4.161907926829559 3.9827702745788915 Q 4.220188630375246 3.966388589860287 4.255383638316809 3.9598074489262767 Q 4.290578646258372 3.9532263079922663 4.3282647377557115 3.9607268751477642 Q 4.365950829253052 3.9682274423032626 4.3985933186630835 3.999202720915665 Q 4.433411974033784 4.0322430181022275 4.445181982929197 4.07649758725166 Q 4.45695199182461 4.1207521564010925 4.441265448630144 4.16997036809766 Q 4.425578905435677 4.219188579794228 4.380836836328874 4.266338842275385 Q 4.32783469292543 4.322193768599217 4.258392360468878 4.344526759061616 Q 4.252774496884609 4.346088683755237 4.248840432983304 4.3444234086366915 Q 4.244906369081998 4.342758133518146 4.238414920328828 4.337976805973942 L 4.130813649623815 4.253792683108246 Q 4.12722375548487 4.251764713662922 4.1302842342172745 4.247086736543642 Q 4.133344712949678 4.242408759424364 4.136934607088623 4.244436728869687 Q 4.200176022540195 4.28239095619263 4.267839001850444 4.286630205048375 Q 4.335501981160691 4.290869453904121 4.385062426940535 4.238641470848069 Q 4.419479403176538 4.202372038170257 4.423278928806583 4.158416792692764 Q 4.427078454436627 4.114461547215271 4.383555135223251 4.073161175732068 Q 4.350912645813219 4.042185897119666 4.313208029751461 4.0339784658750295 Q 4.275503413689703 4.0257710346303925 4.240289881183722 4.031645311475265 Q 4.205076348677741 4.037519588320138 4.150311441013327 4.053101786127513 Q 4.096234872873632 4.067958595281333 4.06207237421915 4.073451653235009 Q 4.027909875564666 4.078944711188685 3.9916189876811847 4.070700230815213 Q 3.955328099797703 4.06245575044174 3.9241363876947837 4.032857150878778 Q 3.88786695501697 3.9984401746427753 3.880356655220804 3.9547813221959722 Q 3.872846355424638 3.911122469749169 3.889406483788006 3.868247510290427 Q 3.9059666121513734 3.825372550831685 3.9390069093379356 3.790553895460984 Q 3.979618941296419 3.7477559649011645 4.036951961415532 3.722203571588182 Q 4.050903997554114 3.7147644394084383 4.05960866139679 3.723024513705079 L 4.147846733228801 3.797105838472991 Q 4.150748287843026 3.7998591965718713 4.147306590219426 3.8034861398396527 Q 4.1438648925958255 3.807113083107434 4.14027499845688 3.80508511366211 Q 4.097048072274194 3.7750945676051177 4.040676393825738 3.7698520616295443 Q 3.984304715377282 3.764609555653972 3.938874306745759 3.8124852067886854 Q 3.900327293361436 3.8531069713878363 3.9049730876722135 3.895426193914035 Q 3.9096188819829907 3.937745416440234 3.944437537353691 3.9707857136267966 Q 3.9727276948423857 3.9976309550908784 4.006842416765198 4.003810416890191 M 4.741450691701819 3.756145361811752 Q 4.6668171841524995 3.7958736835845834 4.582614952086449 3.7913477455497655 Q 4.498412720020399 3.7868218075149476 4.422989378087202 3.7414861759253464 Q 4.334709784688118 3.6884228798602456 4.298503389353678 3.6059889855152236 Q 4.262296994019238 3.523555091170202 4.272571884053604 3.434641219165988 Q 4.282846774087969 3.3457273471617746 4.32663687278247 3.2728752555217544 Q 4.375578747793971 3.1914523295711437 4.4508117499585 3.152667727145542 Q 4.5260447521230285 3.1138831247199406 4.60844618141079 3.1184933797382675 Q 4.690847610698552 3.1231036347565944 4.761128452045395 3.165348200555995 Q 4.839123044271769 3.212229365040696 4.8795328587106575 3.292522869740732 Q 4.919942673149546 3.3728163744407675 4.916182544764293 3.464479406435822 Q 4.912422416379041 3.556142438430877 4.86399571899924 3.6367082809504283 Q 4.816084199251139 3.716417040038921 4.741450691701819 3.756145361811752 M 4.898853690714803 3.4738980484468263 Q 4.898647118417504 3.410186139608007 4.860021874228274 3.350216643100846 Q 4.821396630039045 3.290247146593685 4.745973288105848 3.244911515004084 Q 4.665407445586296 3.196484817624283 4.584809138009485 3.1888747705972493 Q 4.504210830432673 3.181264723570216 4.436356630146301 3.2145672385427653 Q 4.368502429859928 3.247869753515315 4.324712331165428 3.3207218451553353 Q 4.268042791678427 3.4150010225718317 4.296954702118219 3.504717807148194 Q 4.325866612558012 3.5944345917245566 4.432144958009335 3.6583166180553577 Q 4.512710800528887 3.706743315435159 4.597165983545464 3.7166716618048423 Q 4.681621166562041 3.7266000081745263 4.75221757004127 3.695529156628456 Q 4.822813973520499 3.664458305082386 4.8640281840565 3.595891630597661 Q 4.8990602630121005 3.537609957285645 4.898853690714803 3.4738980484468263 M 4.68391010014846 2.4703260082313876 Q 4.683056092842133 2.4732018857532476 4.677304337798413 2.4714938711405927 Q 4.671552582754693 2.4697858565279383 4.67240659006102 2.4669099790060782 L 4.685605987292333 2.4259737369615277 Q 4.697771326649502 2.3920325449034263 4.703749377793793 2.3719014022504066 Q 4.708588752529648 2.3556047629598664 4.715780912115901 2.324359397855809 L 4.726778388563864 2.28381244344766 Q 4.727347726768082 2.28189519176642 4.733099481811802 2.283603206379075 Q 4.738851236855522 2.28531122099173 4.738281898651303 2.2872284726729695 Q 4.715508370482573 2.363918539922569 4.809453702863332 2.3918161119292636 L 5.08170344159941 2.4726621369282564 Q 5.191945413270708 2.505399083670806 5.235557957455713 2.5851122945565246 Q 5.279170501640718 2.6648255054422427 5.248426238612932 2.7683570962292015 Q 5.227360725056856 2.8392954084350808 5.18376144051182 2.8842437386283253 Q 5.140162155966784 2.9291920688215702 5.080193265879286 2.9432003599976415 Q 5.020224375791788 2.957208651173713 4.951203315267149 2.9367124758218552 L 4.644443046268752 2.845618363146934 Q 4.615684271050153 2.8370782900836597 4.600555494668818 2.838844677697852 Q 4.585426718287483 2.840611065312044 4.575172566877163 2.8558213374612937 Q 4.564918415466844 2.8710316096105433 4.554100989586697 2.907459391554103 Q 4.553531651382478 2.9093766432353427 4.547779896338759 2.9076686286226883 Q 4.542028141295039 2.9059606140100334 4.542597479499257 2.9040433623287933 L 4.557504891343225 2.8573553652405232 Q 4.571378245313047 2.8176624181387018 4.578779641967885 2.792738146282582 Q 4.586750376826941 2.765896622745222 4.596789227434284 2.7250649992349643 L 4.609494718494902 2.6787662897830957 Q 4.61034872580123 2.6758904122612357 4.61610048084495 2.6775984268738906 Q 4.62185223588867 2.6793064414865455 4.6209982285823425 2.6821823190084055 Q 4.6104654718043045 2.717651475111345 4.61109318301006 2.7366147548551596 Q 4.611720894215816 2.755578034598974 4.623912954292151 2.7654574916232764 Q 4.636105014368486 2.775336948647579 4.664863789587086 2.7838770217108526 L 4.936154902482543 2.8644383776077365 Q 5.048314125835081 2.8977446625545045 5.123458037836669 2.864249998963156 Q 5.198601949838257 2.8307553353718067 5.225930183640734 2.7387272546722876 Q 5.2515504028305555 2.6524509290164886 5.211621497940982 2.5884358327163235 Q 5.171692593051409 2.5244207364161584 5.07583000898941 2.495953826205245 L 4.802621644412714 2.4148231321041433 Q 4.708676312031955 2.3869255600974486 4.68391010014846 2.4703260082313876 M 5.282611022427086 2.0851870910562162 Q 5.311529451011707 2.0873606798388886 5.32494259253916 2.082351924068786 Q 5.338355734066612 2.077343168298683 5.344042297830527 2.0617254542355137 Q 5.349728861594444 2.0461077401723444 5.352427109738451 2.010209001239711 L 5.360596805507806 1.901515597249238 Q 5.364869031735818 1.8446759272725686 5.332515825465099 1.8081482659184078 Q 5.300162619194379 1.7716206045642469 5.239161477965513 1.7560045625312628 Q 5.2361699163877935 1.7557797085192623 5.237080742339414 1.7503326546287767 Q 5.237991568291035 1.7448856007382911 5.240983129868755 1.7451104547502918 Q 5.323075104816324 1.7603061004821339 5.376923213215274 1.764353472698145 Q 5.384900710755859 1.7649530833968132 5.388166011917864 1.7682069746552 Q 5.3914313130798694 1.7714608659135869 5.390756751043868 1.7804355506467453 L 5.356129233195773 2.2411360336155393 Q 5.355979330521106 2.2431304080006855 5.349996207365667 2.242680699976684 Q 5.344013084210228 2.242230991952683 5.344162986884895 2.2402366175675366 Q 5.34701113770357 2.202343504249757 5.34333685014404 2.1845179716930594 Q 5.339662562584512 2.1666924391363613 5.325653056316202 2.1596225215895863 Q 5.311643550047894 2.152552604042811 5.281727934270699 2.150304063922805 L 4.820030264109332 2.115601594737376 Q 4.790114648332137 2.11335305461737 4.775704319612112 2.1182868590501394 Q 4.761293990892087 2.1232206634829085 4.754497812929598 2.1402592069976043 Q 4.747701634967108 2.1572977505122997 4.744853484148434 2.1951908638300797 Q 4.744703581473766 2.197185238215226 4.738720458318328 2.1967355301912246 Q 4.732737335162889 2.1962858221672232 4.732887237837556 2.194291447782077 L 4.737557040559473 2.145504226683326 Q 4.742699371112628 2.103772267269921 4.744648105883299 2.0778454002630196 Q 4.7467467433286386 2.0499241588709713 4.747900325111501 2.0078923941082323 L 4.750500802110938 1.9599524575273874 Q 4.750725656122938 1.956960895949668 4.7567087792783775 1.9574106039736692 Q 4.762691902433816 1.9578603119976705 4.762467048421816 1.96085187357539 Q 4.759693848940475 1.9977477997005963 4.76386673009629 2.015610807925961 Q 4.768039611252105 2.0334738161513255 4.7820116418517475 2.041042327294387 Q 4.79598367245139 2.048610838437449 4.825899288228585 2.050859378557455 L 5.282611022427086 2.0851870910562162" fill="#382d5e" fill-rule="nonzero"></path></g><g clip-path="url(#SvgjsClipPath17919)"><g clip-path="url(#SvgjsClipPath17915f820ee06-df9e-4f55-898e-9d744ae99901)"><path d=" M 2.371969884576095 1.2483124167891795 L 1.0905464977896575 1.2488573214261132 C 1.077691617995638 1.248875156407694 1.0658146700719466 1.2557230164130309 1.0593587206286383 1.2668391744449545 C 1.0530440903257794 1.2779840919902177 1.0530440903257794 1.291625909723434 1.0593587206286383 1.302770827268697 L 1.6993331901013 2.4135429030528077 C 1.7058096130528295 2.4246427291045936 1.717670046915565 2.431493257193861 1.7305209672623194 2.4315568092855853 C 1.7433890566915091 2.431556955951151 1.755283896636365 2.424705821239585 1.7617407976372748 2.4135749562667455 L 2.4029973956674278 1.3022259226317623 C 2.4094084991812577 1.291095181618307 2.4094084991812577 1.2773929576075371 2.4029973956674278 1.266262216594082 C 2.396619990252744 1.2551499230212722 2.3847821541256464 1.2483015880717123 2.371969884576095 1.2483124167891795 Z M 1.7313864040386269 1.9738369142605632 C 1.551834530403067 1.9735895459817336 1.4063654459089008 1.8280487665223166 1.4062065486444488 1.6484967927967002 C 1.4064184624516727 1.4689875771107324 1.5518772101120857 1.323514491476166 1.7313864040386107 1.3232848841885847 C 1.910927945675063 1.3234615453881853 2.0564360097384466 1.4689552694432835 2.0566303658606775 1.6484967927967002 C 2.0564361471226866 1.828059138417013 1.9109486844004475 1.9735896150732857 1.73138640403868 1.9738369142605632 Z M 1.5079434496815236 1.3206244674317873 C 1.4029039325819017 1.3924607720072342 1.3387346712900032 1.5103547994420696 1.335433052270832 1.6375666468440708 L 1.152889998897758 1.320752680287536 Z M 1.7307773929738168 2.3236656911725446 L 1.5416634307435901 1.9951843547428232 C 1.5996032472871584 2.0278171214500964 1.664890461263158 2.0451785126983175 1.7313864040386255 2.045636113480175 L 1.7313864040386269 2.045636113480175 C 1.7973873683274264 2.045190179434773 1.862206179333051 2.0280786307563026 1.9198272487761685 1.9958895254494444 Z M 2.1273718090203566 1.6364768375702021 C 2.1237238743344244 1.5095770596418636 2.0595742198707927 1.3920845368584556 1.9547973051817913 1.3204000949342274 L 2.3098828091794936 1.3204000949342274 Z" fill="#382d5e" transform="matrix(1,0,0,1,0,0)" fill-rule="nonzero"></path></g><g clip-path="url(#SvgjsClipPath17915f820ee06-df9e-4f55-898e-9d744ae99901)"><path d=" M 2.6577242868273605 1.185456064258081 C 2.4630870583555966 0.8595329455766085 2.1117402933365774 0.6596046274413271 1.7321236279591843 0.6587576528399319 C 1.5391955463573759 0.6589177193685983 1.3498680535366396 0.7110104593523145 1.1840136696309023 0.8095680244150535 C 0.6739378821726872 1.1132360741241185 0.5057598964665446 1.7723859698531308 0.8079974169321255 2.283310694825451 C 1.0026786651512463 2.609220422239918 1.3540344914925353 2.8091400502893684 1.7336621822281766 2.810009106243599 C 1.9265981471361249 2.8098120533606625 2.1159242082297594 2.7576864922127773 2.281772140556458 2.659102575026666 C 2.52755658477034 2.514116491826985 2.705119388399293 2.276823610924251 2.774878783768288 2.0001205496891714 C 2.8461445442675704 1.7238146094508895 2.803961469410782 1.4304835477381284 2.6577242868273605 1.185456064258081 Z M 2.5891945154293574 1.9526817930619271 C 2.5318955086074473 2.180150482634 2.385937387469509 2.3752230209678196 2.183881625191863 2.494381108602745 C 2.0476693939978774 2.5753985941241533 1.892147469346654 2.6182263603601585 1.7336621822281741 2.6183629401123247 C 1.4217116807774608 2.6176881717824108 1.1329741012762404 2.453439169453637 0.9729753090675456 2.1856445519584162 C 0.7244949388081106 1.7658354540368728 0.8626709065422307 1.2241145436985383 1.2818721317815598 0.9746100229783481 C 1.4180637837345664 0.8935992386582099 1.5735632998514735 0.8507715450993811 1.7320274683173742 0.8506281914687697 C 2.0439601732556683 0.8513063494577777 2.332677023057984 1.0155574018105493 2.49265023505013 1.283346579622676 C 2.6129040653121174 1.4846205095314247 2.647666840946067 1.725628570882063 2.5891945154293574 1.9526817930619271 Z" fill="#382d5e" transform="matrix(1,0,0,1,0,0)" fill-rule="nonzero"></path></g><g clip-path="url(#SvgjsClipPath17915f820ee06-df9e-4f55-898e-9d744ae99901)"><path d=" M 3.1789095454482887 2.2113191763222155 C 3.1800314079360947 2.1238780087011886 3.066723296667647 2.058553558696918 2.982807982579726 2.022205214091989 C 3.0728775137436126 2.0249938437045363 3.2010903694929196 2.0142880702494694 3.241156886914577 1.9365269732375157 C 3.3108726272282625 1.801262410421998 3.472677251183886 1.7822869077711005 3.472677251183886 1.7822869077711005 C 3.472677251183886 1.7822869077711005 3.3100071904519552 1.7676385890017425 3.2500997336030917 1.6183026652677384 C 3.217501615028831 1.5372721404341774 3.0876219921547845 1.520668575614642 2.996238279219466 1.5194185002710858 C 3.08047412544676 1.4873652863337592 3.194551513849706 1.4280027341218304 3.2016352741298544 1.3408179922123022 C 3.2138475486399765 1.1891421838608744 3.355779179954457 1.109201468301182 3.355779179954457 1.109201468301182 C 3.355779179954457 1.109201468301182 3.2000005602190496 1.1584672581228526 3.0871411939457243 1.0437808586550987 C 3.0258233956836182 0.9814694107609363 2.899629892412365 1.0162150946689978 2.814688875478449 1.0503517675122507 C 2.8801094851245326 0.9882005856877747 2.962550351371336 0.8895087399747472 2.9354333323803576 0.8063627030213225 C 2.8881868950367395 0.6616744953082304 2.9883531885908843 0.5332052138474261 2.9883531885908843 0.5332052138474261 C 2.9883531885908843 0.5332052138474261 2.863634133160747 0.6387243941291056 2.7153559654866757 0.5763808930210058 C 2.6347421324342992 0.542532699103188 2.5316910496257945 0.6232426917973766 2.46652686569121 0.6874132260999037 C 2.502907263510075 0.6048762002112891 2.5409544284536816 0.4820482844034531 2.4838676544313025 0.4157622379810623 C 2.3845026912255913 0.30037066780668714 2.4274860511155465 0.14330991951378713 2.4274860511155465 0.14330991951378713 C 2.4274860511155465 0.14330991951378713 2.3529943819251984 0.28873535114743787 2.1921193011737587 0.2883827657941279 C 2.1146146298733024 0.2883827657941279 2.0555726098007474 0.3781317648186422 2.0184549880613236 0.45711088396021465 C 2.017461338429266 0.37111211096636765 2.0011141993212296 0.2667147931724955 1.9322959489977902 0.23132804498568652 C 1.7968711201125864 0.16177257074168844 1.7776712449641277 2.4674855944680626e-15 1.7776712449641277 2.4674855944680626e-15 C 1.7776712449641277 2.4674855944680626e-15 1.7632793519062673 0.1627021139458709 1.6140395878140754 0.2228339432922958 C 1.5601901883993676 0.24453396912786568 1.5350284154585656 0.3093776209230766 1.5237456841526276 0.37710606197264723 C 1.4924296941358595 0.31745503083528354 1.449189908534406 0.2646313342665694 1.3919108152284034 0.25793221255366733 C 1.2407799115139087 0.24030294488813844 1.165967710184189 0.0955506307471714 1.165967710184189 0.0955506307471714 C 1.165967710184189 0.0955506307471714 1.20959213435289 0.25296396439338265 1.0909311363569074 0.361592306426982 C 1.0264721231289442 0.4206343264995382 1.0566341974439684 0.5479817454725351 1.0877258149631746 0.6340446248942572 C 1.0280427306118733 0.5664764499143727 0.9322997805810794 0.4805097301344632 0.848288306851346 0.5046137470153317 C 0.7019974384413885 0.5466355104871677 0.5772142765833764 0.4419176605539219 0.5772142765833764 0.4419176605539219 C 0.5772142765833764 0.4419176605539219 0.67811779405808 0.5703548888007888 0.6104855126503218 0.7163252250713744 C 0.5738486891199579 0.7956889827801944 0.6507764025695411 0.9015607484151839 0.712542945826769 0.9689366041114433 C 0.6314162613513955 0.9296714170382196 0.5099345805289288 0.8872009085712611 0.44169328805636066 0.9419157447622776 C 0.32290407720462944 1.036985577300389 0.1674139363946587 0.9884249581853384 0.1674139363946587 0.9884249581853384 C 0.1674139363946587 0.9884249581853384 0.31005073841576153 1.0680771948195946 0.30386446812585755 1.2288240627152869 C 0.30065914673212524 1.3161690706945013 0.41242870373158247 1.3842180438834457 0.49541447461532034 1.4225536877524882 C 0.40537699666537047 1.4176174928061398 0.2769718216324411 1.4252461577232243 0.2351103242302919 1.5019815518891833 C 0.16215720930893654 1.6355472943660234 -0.00006410642787190711 1.6507084645583776 -0.00006410642787190711 1.6507084645583776 C -0.00006410642787190711 1.6507084645583776 0.16222131573681153 1.6691711157862776 0.2185067594107567 1.8199173809335243 C 0.249213738362716 1.9017812893294566 0.3785484565998278 1.921461962686974 0.4699321695351457 1.9248596033643313 C 0.384959099387293 1.9549896244654181 0.2693752099292935 2.011403280995112 0.2603041503850309 2.0985239164767666 C 0.2445019159139288 2.2498791926888217 0.10064709176320794 2.3263902143572195 0.10064709176320794 2.3263902143572195 C 0.10064709176320794 2.3263902143572195 0.2575475739864211 2.2808746505662176 0.36761831064720035 2.3982214667907686 C 0.42742960785425155 2.461911202884237 0.5544244414739391 2.4302746807280955 0.6400706291144749 2.3982214667907686 C 0.5732396780551492 2.458737934704441 0.48849098040485767 2.555442481153355 0.5136207001317223 2.639229582385527 C 0.5573733371561733 2.7849755461585506 0.4541299350640448 2.9110087833601175 0.4541299350640448 2.9110087833601175 C 0.4541299350640448 2.9110087833601175 0.5813811943952305 2.8084384987606734 0.7281528610142487 2.8744040130436908 C 0.8079333105042542 2.9101753997977475 0.9128755329350613 2.83196555779067 0.9795141647107632 2.7693976841850088 C 0.941050307985972 2.851005166869442 0.9001824602158802 2.9729035394730943 0.9556345203274548 3.0405358208808537 C 1.0521788007066823 3.158139062816905 1.0055093212139354 3.3142382146916836 1.0055093212139354 3.3142382146916836 C 1.0055093212139354 3.3142382146916836 1.083430684295576 3.1706398162524616 1.244305765047017 3.1748387872782513 C 1.3317148794541065 3.177082512253864 1.3981611919461843 3.064511624905973 1.4356955054667937 2.9810771090271135 C 1.4318170665803764 3.071146640191001 1.4410163389803896 3.1994236023681815 1.5182645845693465 3.2403876097800848 C 1.6526316573946191 3.3117701172185106 1.669716020423213 3.4737670604577584 1.669716020423213 3.4737670604577584 C 1.669716020423213 3.4737670604577584 1.6863195852427484 3.311225212581576 1.8363927328973113 3.2531447889271408 C 1.91780789629812 3.221476213557062 1.9359820686005837 3.091885069608451 1.9383219532180087 3.0005334098870704 C 1.9694456239511529 3.085153894681612 2.027397834749839 3.199968507005116 2.114614629873305 3.2079818104894477 C 2.266162225368984 3.222053171407934 2.344404120589998 3.3650425587823474 2.344404120589998 3.3650425587823474 C 2.344404120589998 3.3650425587823474 2.296997417176692 3.208654927982132 2.4130300516298133 3.097237956335985 C 2.4760146170166606 3.0366573819944387 2.4428074873775905 2.910047186941999 2.4098247302360813 2.82478563786871 C 2.4711104752842497 2.8909114182214144 2.568808671365221 2.9745062001699623 2.6523072936719556 2.9483507775971036 C 2.797508352808045 2.902899320233974 2.9247596121392307 3.004636221271049 2.9247596121392307 3.004636221271049 C 2.9247596121392307 3.004636221271049 2.820843092554419 2.8786029840694813 2.8849174672151348 2.7310620403159676 C 2.919663151123196 2.6509290054726513 2.840203233772564 2.5468201666042156 2.7768660830324063 2.481046971604821 C 2.8589543639259 2.518388965841806 2.981301481524675 2.557974685054405 3.0482606454397505 2.50156102852471 C 3.164774078101932 2.403638459946177 3.3214181346136455 2.4484488530305595 3.3214181346136455 2.4484488530305595 C 3.3214181346136455 2.4484488530305595 3.1766017140448013 2.372162203859719 3.1789095454482887 2.2113191763222155 Z M 3.0418820558662185 1.7657795025933778 C 3.050632583271108 1.768087333996865 3.0611139842286135 1.7701387396888537 3.0720120769673054 1.7720298793111562 C 3.060843582702731 1.773313874082001 3.0497567826038363 1.7752294505469637 3.038804947328235 1.777767404605937 C 3.0148089430319387 1.7834112668948687 2.9921348982937856 1.793654318310425 2.9720381026967844 1.8079294789209612 C 2.97364076339365 1.7820625352735393 2.973127911970653 1.7561314851982421 2.973063805542779 1.73013632869507 C 2.992981594832334 1.747080473249314 3.0165269925083784 1.7592205548643023 3.0418820558662185 1.7656192365236902 Z M 2.3269351189941516 2.735164851699941 C 2.147505786919888 2.8418032900224666 1.9426768218017978 2.8981700068557745 1.7339506611536104 2.8983477638548707 C 1.3230701982437674 2.897506989125897 0.9427552749446684 2.681159302169974 0.7320633531145985 2.3284095668352682 C 0.40475754427283356 1.7755452589707783 0.5867328181554461 1.0620691201439683 1.1388506911932088 0.7335057477417771 C 1.3182636553834868 0.6268214006585546 1.5230995936401024 0.5704306204671511 1.7318351490337494 0.570258729158975 C 2.1427624142905897 0.571142588514499 2.5230995515638233 0.7875499055605238 2.7337865635006366 1.1403571922482638 C 3.0609970036777217 1.6932199314371272 2.8790028129018252 2.406614791758145 2.3269351189941525 2.735164851699941 Z M 2.951972790772017 1.259851573806616 C 2.960915637460531 1.2586976581048726 2.971204719134413 1.2566462524128839 2.9821669183009787 1.254017888870024 C 2.972340569931344 1.2595168668316197 2.962837255289668 1.2655741597225976 2.953703664324634 1.2721600079585504 C 2.934356726991622 1.2862670436173953 2.9178301875232373 1.3038808554192265 2.904982779139896 1.3240862145370196 C 2.8967771563719404 1.3006553151488336 2.8866162875538084 1.2776411075418337 2.87687211051686 1.254498687079084 C 2.9011702788217972 1.2618068784875835 2.9267868764615077 1.263635071566998 2.9518766311302054 1.259851573806616 Z M 2.699393464945885 0.8109142594004222 C 2.692500999598261 0.8197904034293344 2.686081441791729 0.829023867407729 2.68016153658349 0.8385761830283341 C 2.6680776477985435 0.858641232266658 2.6597672283989 0.880748034199046 2.655640827921434 0.9038044733907938 C 2.639357795241273 0.8857905671580162 2.6224978047102403 0.8683856719900486 2.605285228825895 0.8514615750311396 C 2.6295262645770117 0.8485380023478022 2.6528720786891546 0.8405084406386655 2.6737829470099617 0.8279024627872049 C 2.6817000908524813 0.8233829596220414 2.6903544586155594 0.8174210618296993 2.699393464945885 0.8109142594004222 Z M 2.250648469823315 0.5365066948829709 C 2.2560975161926597 0.5293267749610101 2.261867094701378 0.5204800879143069 2.267700779637973 0.5108641237331087 C 2.264722971820295 0.5217296964531237 2.2623474178483147 0.5327514108276253 2.260584966143887 0.5438789340885555 C 2.257240658578782 0.566764183739914 2.258044121511512 0.5900646087890715 2.262956903975248 0.6126651311980573 C 2.2414812506372392 0.6025042623799242 2.2197812248016695 0.5927280321290398 2.1977286136127896 0.5838172386544629 C 2.218516981725728 0.5718939608780621 2.236602851913536 0.5557836745792063 2.2508407891069386 0.5365066948829709 Z M 1.7676706422156796 0.40063312100264326 C 1.7689610353356706 0.4118049987507899 1.7708981638784274 0.4228926516253494 1.7734722739383366 0.4338402506417149 C 1.778832616419285 0.4554608367040544 1.7878755038037049 0.4759970821550013 1.8002046543620662 0.49454903783900983 C 1.7774148192526265 0.4932669092815174 1.7545608777153128 0.492209153221585 1.7315787233222506 0.492209153221585 C 1.745501566872856 0.4739083232825266 1.755645526401931 0.45302113701267177 1.7614202654979012 0.4307631421037301 C 1.7640842302380542 0.4208372031823224 1.7662346500638308 0.4107805134498398 1.7678629614993033 0.40063312100264453 Z M 1.3143099842861334 0.503203405602088 C 1.3267475497715329 0.5213737269545393 1.3422073065818796 0.5372779788765446 1.3600178673607604 0.5502254704481475 C 1.338381947953065 0.5570207518028584 1.3168421881871812 0.5644570974363191 1.295558854132797 0.5724704009206498 C 1.3021182544449865 0.5504674916349661 1.3042962843218904 0.5273912650891672 1.3019694969202622 0.5045496405874567 C 1.3011681665718287 0.495542687471066 1.2993411333774019 0.48531771222505915 1.2971935680436006 0.47413114056093236 C 1.3023831525339038 0.48417630363664615 1.308162840541196 0.49390544511558804 1.3145023035697572 0.503267512029963 Z M 0.8711422483886577 0.7608471392303179 C 0.8898116830078316 0.7729002558534401 0.9104109625409392 0.7816603705180455 0.9320433548695795 0.7867461360916775 C 0.9145102468458612 0.8015226677167853 0.8971053516778924 0.8163633057697681 0.8807582125698565 0.8320052741711833 C 0.8783087629442504 0.8091456485064938 0.8713817012644139 0.7869921210587141 0.8603723685057165 0.7668090370226625 C 0.8561413442659893 0.7587957335383293 0.8490896371997779 0.7487951307898837 0.8427110476262502 0.7393073794644343 C 0.8518195235018179 0.7470647298624636 0.8613772670382139 0.754278525095981 0.8713345676722827 0.7609112456581917 Z M 0.5616364146098337 1.1694294572894182 C 0.5836953887865723 1.173395137254509 0.606275155577404 1.1735035895445716 0.628371206027347 1.1697499894287906 C 0.6178256986419663 1.190456365632303 0.6077609894656457 1.2114191675473156 0.5984655574238213 1.2325422355320141 C 0.5873201835021777 1.2119144586710606 0.5721349644007452 1.193742340765757 0.5538154304091266 1.17910952789849 C 0.5468919361986634 1.1734361090315841 0.5382375684355858 1.167345998383492 0.5288780299658864 1.1611597280935875 C 0.5396980041194336 1.1645485169225391 0.5506986784413124 1.16733078863819 0.5618287338934587 1.1694935637172943 Z M 0.4299938649692339 1.6776331642657283 C 0.4214677100619051 1.6751009603646798 0.41111452196014825 1.6728251821751299 0.40008821636570835 1.6707096700552664 C 0.41128116058361497 1.6696534770073048 0.42240906966218594 1.6679949905580949 0.4334235588605256 1.665741421894979 C 0.4555445128147451 1.660854907056661 0.47663536889238844 1.6521212963866487 0.495735006754691 1.639938584675432 C 0.49394002677419924 1.663433590491493 0.4932669092815162 1.6869285963075529 0.49278611107245557 1.71045565533755 C 0.47437803900245873 1.6953719687058886 0.45307265778740374 1.684222916170413 0.43018618425285954 1.6776972706936033 Z M 0.5079152280508746 2.1854201794608548 C 0.49772897076752987 2.1866112555326485 0.4876088243461662 2.18831221037514 0.47759288766616403 2.1905166404768894 C 0.48752169047727834 2.185238361515453 0.4971522401429421 2.1794172292730956 0.5064407802097559 2.1730796920949844 C 0.5252413123371963 2.160000049901543 0.5415286317838977 2.1436367229640902 0.5545206011157479 2.1247754986914322 C 0.5619889999631449 2.147212748447561 0.5709959530795337 2.1696499982036896 0.5798105869122981 2.191734662606507 C 0.5566095762305643 2.1846602864636893 0.5321826737515502 2.182530985621755 0.5081075473344977 2.1854842858887285 Z M 0.7495323547104418 2.6402552852315173 C 0.7566709254563502 2.6315746426934505 0.7633164021498431 2.6224999820878443 0.7694374005655217 2.613074159812664 C 0.782067872981748 2.593186249603292 0.7909539501373174 2.571155730689484 0.7956569295662544 2.5480702419477654 C 0.8116835365349184 2.5665328931756655 0.8283832609962655 2.584450639766632 0.8454676240248606 2.601823481720662 C 0.8208205311672978 2.6040865696236657 0.7969472102299991 2.611618033966981 0.77546340478574 2.6239081461234797 C 0.7678026866547181 2.6282673832189567 0.7589239463940787 2.634004908513739 0.7497246739940661 2.6403193916593923 Z M 1.1914179620504242 2.925336569990099 C 1.1858407028253297 2.9323241706284353 1.17984675181905 2.9410746980333267 1.1737886943848947 2.9505303961448375 C 1.1769910505582737 2.9397462999908237 1.179623061400371 2.928800986610884 1.181673785013478 2.9177399582869525 C 1.1858932586462139 2.893760553322706 1.1855016263926061 2.869196508082537 1.1805198693117338 2.845363801216469 C 1.2031173851375492 2.8566465325224084 1.2260995395306113 2.867127933479914 1.2493701728491107 2.8770003233726102 C 1.2267609419815702 2.8886434224917905 1.2070296772528297 2.905177390161268 1.1916102813340492 2.925400676417974 Z M 1.6914480994727168 3.043196237637648 C 1.6887147239875215 3.0530655768559414 1.6864894435604922 3.063068640313984 1.6847810309737548 3.0731659926690473 C 1.6836264129016567 3.061991973923073 1.6818284489383146 3.0508938273160173 1.6793960910322827 3.0399268098160417 C 1.6741508191756358 3.016116412356562 1.6643554109249337 2.9935434382321655 1.6505481984886883 2.9734484441100255 C 1.675774077857364 2.975115211234766 1.70112817008179 2.975916541583199 1.7265463687340896 2.976076807652886 C 1.7100347272650411 2.995580130035921 1.6981067732920792 3.0185378816679957 1.6916404187563405 3.043260344065523 Z M 2.1858368712420404 2.960851531032657 C 2.1715211688810725 2.940537879459776 2.153355933154629 2.923232987631646 2.13237211039458 2.9099189740862452 C 2.1569248722705723 2.901553085248603 2.1812532616490032 2.8922576532067787 2.2052611188880604 2.8823532101001437 C 2.1970701879055183 2.9071215225783327 2.1946580063706196 2.933436230231775 2.1982094118218485 2.959280923549727 C 2.199497986638331 2.969444359312601 2.20131681569144 2.9795335110601417 2.203658458191193 2.989507104292626 C 2.1983246160540904 2.9796525399411067 2.19243883391045 2.9701068714463283 2.186029190525664 2.960915637460532 Z M 2.6226580707799263 2.6926302368051087 C 2.6012449439410736 2.6791823360815115 2.577335856425494 2.6701987117710515 2.5523653726153697 2.6662183885207518 C 2.572590950609822 2.648396801571598 2.5916305596885936 2.6297097778461365 2.6104457962698047 2.6108304348370517 C 2.6119969631358244 2.637491623724564 2.6198749930815004 2.663400123880635 2.633427950662868 2.686411913301267 C 2.6378512941862193 2.6942008442880376 2.6437170323367503 2.7030154781208027 2.6500956219102783 2.7120544844511287 C 2.6413880665890397 2.7050900528237634 2.632291648733983 2.6986262453126413 2.6228503900635487 2.6926943432329837 Z M 2.922387674307866 2.2767718391822367 C 2.897422978211787 2.2726616493613796 2.8718882345618275 2.273588005831822 2.847286994052711 2.279496362366909 C 2.859050523567709 2.255360292272103 2.8693396052415907 2.2306472643264232 2.8793402079900363 2.2057739703110575 C 2.8911625890117376 2.2298889244848845 2.9085954890397945 2.2508171979107487 2.9301766052946356 2.266803289647727 C 2.9372603655747853 2.272380548872822 2.9462032122632995 2.278214233809415 2.9555306975190616 2.284208184815696 C 2.9446937169719285 2.2811361929771317 2.9336928463317267 2.2786749086899274 2.9225799935914885 2.2768359456101104 Z" fill="#382d5e" transform="matrix(1,0,0,1,0,0)" fill-rule="nonzero"></path></g></g><g><path d=" M -0.9902067082574608 1.7368995568358458 A 2.7265453338494035 2.7265453338494035 0 0 1 4.462883959441346 1.7368995568358458 A 2.7265453338494035 2.7265453338494035 0 0 1 -0.9902067082574613 1.7368995568358458 Z M -0.9402067082574608 1.736899556835846 A 2.6765453338494036 2.6765453338494036 0 0 0 4.412883959441347 1.736899556835846 A 2.6765453338494036 2.6765453338494036 0 0 0 -0.9402067082574606 1.736899556835846 Z" fill="#382d5e" fill-rule="nonzero"></path></g><g><path d=" M -2.320000462370587 1.736899556835846 A 4.05633908796253 4.05633908796253 0 0 1 5.792677713554474 1.736899556835846 A 4.05633908796253 4.05633908796253 0 0 1 -2.3200004623705865 1.736899556835846 Z M -2.270000462370587 1.7368995568358452 A 4.006339087962529 4.006339087962529 0 0 0 5.742677713554471 1.7368995568358452 A 4.006339087962529 4.006339087962529 0 0 0 -2.2700004623705876 1.7368995568358452 Z" fill="#382d5e" fill-rule="nonzero"></path></g><g transform="matrix(0.40059553322635133,-0.9162549965806982,0.9162549965806982,0.40059553322635133,-1.5795644863044935,-0.8548462439331979)"><g clip-path="url(#SvgjsClipPath17920)"><path d=" M -1.4431450271568362 0.9616209532750524 C -1.431906826467181 0.9616209532750524 -1.426197406467181 0.9539508863785006 -1.4156736443982156 0.9400355705164316 L -1.3100686561223536 0.7989319132750523 C -1.3043592361223535 0.7914384263785006 -1.3016841506051122 0.7843041884474662 -1.3016841506051122 0.776632091895742 C -1.3016841506051122 0.7689620249991903 -1.3043592361223535 0.7618257574129834 -1.3100686561223536 0.7543343001716041 L -1.4156736443982156 0.6132296281026386 C -1.426197406467181 0.5993155300336731 -1.431906826467181 0.5916448542405697 -1.4431450271568362 0.5916448542405697 C -1.4545618375016638 0.5916448542405697 -1.4602712575016639 0.5993155300336731 -1.4707950195706294 0.6132296281026386 L -1.576400616743043 0.7543343001716041 C -1.582109021915457 0.7618257574129834 -1.5847849192947672 0.7689620249991903 -1.5847849192947672 0.776632091895742 C -1.5847849192947672 0.7843041884474662 -1.582109021915457 0.7914384263785006 -1.576400616743043 0.7989319132750523 L -1.4707950195706294 0.9400355705164316 C -1.4602712575016639 0.9539508863785006 -1.4545618375016638 0.9616209532750524 -1.4431450271568362 0.9616209532750524 Z" fill="#382d5e" transform="matrix(1,0,0,1,0,0)" fill-rule="nonzero"></path></g></g><g transform="matrix(-0.40059553322635133,-0.9162549965806982,-0.9162549965806982,0.40059553322635133,7.59961563600311,4.97158932282224)"><g clip-path="url(#SvgjsClipPath17921)"><path d=" M 4.915822278340723 0.9616209532750524 C 4.927060479030378 0.9616209532750524 4.932769899030378 0.9539508863785006 4.943293661099344 0.9400355705164316 L 5.0488986493752055 0.7989319132750523 C 5.054608069375206 0.7914384263785006 5.057283154892447 0.7843041884474662 5.057283154892447 0.776632091895742 C 5.057283154892447 0.7689620249991903 5.054608069375206 0.7618257574129834 5.0488986493752055 0.7543343001716041 L 4.943293661099344 0.6132296281026386 C 4.932769899030378 0.5993155300336731 4.927060479030378 0.5916448542405697 4.915822278340723 0.5916448542405697 C 4.904405467995895 0.5916448542405697 4.898696047995895 0.5993155300336731 4.88817228592693 0.6132296281026386 L 4.782566688754516 0.7543343001716041 C 4.7768582835821025 0.7618257574129834 4.774182386202792 0.7689620249991903 4.774182386202792 0.776632091895742 C 4.774182386202792 0.7843041884474662 4.7768582835821025 0.7914384263785006 4.782566688754516 0.7989319132750523 L 4.88817228592693 0.9400355705164316 C 4.898696047995895 0.9539508863785006 4.904405467995895 0.9616209532750524 4.915822278340723 0.9616209532750524 Z" fill="#382d5e" transform="matrix(1,0,0,1,0,0)" fill-rule="nonzero"></path></g></g></g><defs><clipPath id="SvgjsClipPath17919"><path d=" M 0 0 h 3.4726772511838857 v 3.473799113671692 h -3.4726772511838857 Z"></path></clipPath><clipPath id="SvgjsClipPath17915f820ee06-df9e-4f55-898e-9d744ae99901"><path d=" M 0 0 L 3.4726772511838853 0 L 3.4726772511838853 3.473799113671692 L 0 3.473799113671692 Z"></path></clipPath><clipPath id="SvgjsClipPath17920"><path d=" M -1.7272967512947672 0.4855450360336731 h 0.568303448275862 v 0.5885999999999999 h -0.568303448275862 Z"></path></clipPath><clipPath id="SvgjsClipPath17921"><path d=" M 4.631670554202792 0.4855450360336731 h 0.568303448275862 v 0.5885999999999999 h -0.568303448275862 Z"></path></clipPath></defs></svg>